<svg width="612" height="441" viewBox="0 0 612 441" fill="none" xmlns="http://www.w3.org/2000/svg">
<g clip-path="url(#clip0_2_461)">
<path d="M515.988 403.673C515.988 403.673 568.343 317.758 549.656 252.115C548.851 249.219 547.884 246.484 546.757 243.588C544.662 239.404 543.696 235.221 543.535 231.199C543.374 227.177 543.857 223.155 544.985 219.293C548.529 209.801 553.362 200.147 559.644 191.62C561.739 188.724 563.994 185.989 566.41 183.415C591.219 155.098 592.669 110.21 558.194 87.0415C540.957 76.2618 520.82 81.7321 504.228 89.6157C500.845 91.2246 497.784 92.8335 494.723 94.6033C482.641 99.2691 469.592 103.291 456.06 106.027C451.55 106.992 447.039 107.635 442.528 108.279C399.355 112.623 360.692 90.9028 328.634 66.9302C325.734 65.4822 322.835 64.0342 319.774 62.9079C304.309 57.1159 285.622 56.3114 260.33 65.9649C179.299 96.6949 203.785 173.761 107.934 167.004C12.0823 160.247 11.4379 250.667 36.5687 292.981C61.8606 335.134 89.0857 378.092 71.2041 397.56C53.1615 417.027 212.001 403.352 224.244 404.639C236.327 406.087 515.988 403.673 515.988 403.673Z" fill="#EAEAEA"/>
<path d="M368.424 65.6432C371.002 73.6877 381.151 79.6406 387.917 83.502C401.127 90.903 417.397 95.0861 432.379 92.0292C441.4 90.2594 450.261 86.7198 458.638 83.0193C471.203 77.3882 490.212 73.8486 496.656 59.6903C502.133 47.7844 483.93 45.6928 476.68 44.5666C449.455 39.9008 418.525 35.8785 391.139 42.1532C382.923 44.0839 372.935 47.7844 369.23 55.9898C367.619 59.6903 367.619 62.7472 368.424 65.6432Z" fill="#EAEAEA"/>
<path d="M113.733 396.112C115.183 405.765 113.088 418.153 112.444 421.854C112.283 422.498 112.283 422.98 112.283 422.98L104.873 410.753C102.617 405.604 93.757 386.136 91.5017 373.748C89.2464 361.359 82.6415 351.384 82.3193 345.109C82.1582 338.835 92.3072 335.295 94.8847 322.585C97.6233 309.874 102.939 289.12 106.161 289.763C106.322 289.763 106.645 289.924 106.806 290.085C109.705 293.142 111.961 313.414 114.86 318.723C117.921 324.355 126.459 331.273 119.854 339.317C113.25 347.362 116.794 357.015 122.754 365.542C129.037 374.23 111.961 384.688 113.733 396.112Z" fill="#37485A"/>
<path opacity="0.3" d="M113.733 396.112C115.183 405.765 113.089 418.154 112.444 421.854C97.4623 358.785 106.323 289.763 106.323 289.763L106.967 290.085C109.867 293.142 112.122 313.414 115.022 318.723C118.082 324.355 126.621 331.273 120.016 339.317C113.411 347.362 116.955 357.015 122.915 365.542C129.037 374.231 111.961 384.688 113.733 396.112Z" fill="#37485A"/>
<path d="M97.9456 408.822C95.3681 409.465 91.9851 408.983 87.7967 407.052C85.3802 405.926 84.5748 392.572 80.0641 390.48C75.5534 388.55 72.3315 382.275 70.8817 375.678C69.4318 369.243 56.0609 366.508 53.6445 359.429C51.067 352.349 58.6385 347.362 58.1552 340.926C57.6719 334.491 52.1947 325.159 56.222 320.976C60.2494 316.793 67.1765 331.434 71.0428 334.491C74.748 337.547 81.9972 340.765 80.0641 346.236C78.131 351.706 80.8696 360.716 93.7572 365.703C104.551 370.047 112.444 405.443 97.9456 408.822Z" fill="#37485A"/>
<path d="M152.879 358.142C148.208 364.416 139.186 358.463 135.159 364.738C131.131 371.013 134.837 380.344 131.131 386.458C127.426 392.411 122.754 393.859 118.083 395.79C113.411 397.72 112.767 406.248 112.122 408.339C112.122 408.339 112.122 408.339 112.122 408.5C112.122 408.5 106.806 397.56 109.061 390.48C111.478 383.562 109.384 373.748 110.672 367.473C111.961 361.198 117.277 357.82 119.049 351.545C120.66 345.27 128.071 340.604 131.776 332.56C135.481 324.515 149.496 315.506 154.49 317.275C154.49 317.275 154.651 317.275 154.651 317.436C159.323 319.367 154.329 331.756 150.785 336.421C147.241 340.926 157.551 351.867 152.879 358.142Z" fill="#37485A"/>
<path opacity="0.3" d="M152.879 358.141C148.207 364.416 139.186 358.463 135.158 364.738C131.131 371.013 134.836 380.344 131.131 386.458C127.426 392.411 122.754 393.859 118.082 395.79C113.411 397.72 112.766 406.248 112.122 408.339C110.028 393.698 120.821 372.139 129.842 352.832C139.025 333.364 151.59 320.171 154.651 317.115C159.323 319.045 154.329 331.434 150.785 336.1C147.241 340.926 157.551 351.867 152.879 358.141Z" fill="#37485A"/>
<path opacity="0.3" d="M97.9455 408.822C92.6294 386.941 84.2524 376.483 78.7752 368.277C72.6536 359.268 56.0608 321.137 56.0608 321.137C60.0882 316.954 67.0153 331.595 70.8815 334.651C74.5867 337.708 81.836 340.926 79.9029 346.396C77.9697 351.867 80.7083 360.877 93.5959 365.864C104.55 370.047 112.444 405.443 97.9455 408.822Z" fill="#37485A"/>
<path d="M532.902 388.55C532.741 388.872 532.58 389.033 532.258 389.033H532.097C526.136 388.872 515.665 358.303 500.683 360.072C500.522 360.072 500.361 360.072 500.2 360.072C500.2 360.072 514.537 353.315 521.787 357.015C533.063 362.968 534.674 384.849 532.902 388.55Z" fill="#37485A"/>
<path opacity="0.3" d="M532.901 388.55C532.74 388.872 532.579 389.033 532.257 389.033H532.096C526.135 388.872 515.664 358.302 500.682 360.072C500.682 360.072 517.275 353.476 525.008 366.991C530.163 375.679 532.096 383.723 532.901 388.55Z" fill="#37485A"/>
<path d="M533.386 407.535C533.386 407.535 533.225 407.535 533.386 407.535C533.225 407.535 533.063 407.374 533.063 407.213C533.063 406.73 535.802 362.647 511.96 359.268C511.799 359.268 511.638 359.107 511.638 358.785C511.638 358.624 511.799 358.463 512.121 358.463C536.769 361.842 533.869 406.57 533.869 407.052C533.708 407.374 533.547 407.535 533.386 407.535Z" fill="#6979EF"/>
<path d="M572.37 370.691C557.066 368.438 546.595 399.168 540.635 399.49C540.473 399.49 540.473 399.49 540.312 399.49C540.151 399.49 540.151 399.49 539.99 399.329C537.896 397.077 539.185 373.587 550.945 367.634C557.872 364.094 571.565 370.369 572.37 370.691Z" fill="#37485A"/>
<path opacity="0.3" d="M572.209 370.691C557.067 368.438 546.434 399.168 540.474 399.49C540.313 399.49 540.313 399.49 540.152 399.49C539.99 399.49 539.99 399.49 539.829 399.329C540.796 394.02 542.729 383.24 549.012 375.518C557.55 365.221 571.243 370.369 572.209 370.691Z" fill="#37485A"/>
<path d="M539.346 417.993C539.185 417.993 539.024 417.832 539.024 417.671C539.024 417.188 536.124 372.461 560.772 369.082C560.933 369.082 561.094 369.243 561.255 369.404C561.255 369.565 561.094 369.726 560.933 369.886C536.93 373.104 539.668 417.349 539.829 417.832C539.668 417.832 539.507 417.993 539.346 417.993Z" fill="#6979EF"/>
<path d="M534.352 368.599C534.352 368.76 534.352 368.76 534.352 368.76C534.352 368.76 534.352 368.76 534.191 368.599C532.902 367.473 525.975 360.877 522.753 345.431C518.081 324.033 509.866 319.206 509.382 318.884L508.899 318.563C509.06 318.563 509.221 318.563 509.382 318.402C520.981 316.31 529.68 321.941 533.063 335.295C536.446 350.258 534.513 366.669 534.352 368.599Z" fill="#37485A"/>
<path opacity="0.3" d="M534.029 368.599C532.741 367.473 525.813 360.877 522.592 345.431C517.92 324.033 509.704 319.206 509.221 318.884C510.026 319.045 525.33 322.102 529.519 339.8C532.579 352.993 533.707 363.773 534.029 368.599Z" fill="#37485A"/>
<path d="M535.802 415.901C535.641 415.901 535.48 415.74 535.48 415.579V415.257C535.802 406.409 537.574 331.755 516.632 322.746C516.471 322.585 516.309 322.424 516.471 322.263C516.632 322.102 516.793 321.941 516.954 322.102C537.896 331.273 536.607 400.777 536.124 415.418V415.579C536.285 415.74 536.124 415.901 535.802 415.901Z" fill="#6979EF"/>
<path d="M564.316 328.699L563.832 329.021C563.832 329.021 555.133 333.525 550.461 355.567C546.917 372.139 539.185 378.575 538.702 378.896C538.702 378.896 538.702 378.736 538.702 378.414C538.379 375.357 536.768 359.751 540.312 345.592C543.534 331.917 552.556 326.285 564.316 328.699Z" fill="#37485A"/>
<path opacity="0.3" d="M564.316 328.699L563.832 329.021C563.832 329.021 555.133 333.525 550.461 355.567C546.917 372.139 539.185 378.575 538.701 378.896C538.701 378.896 538.701 378.736 538.701 378.414C541.118 356.854 544.984 346.236 548.367 339.639C552.717 331.273 564.316 328.699 564.316 328.699Z" fill="#37485A"/>
<path d="M536.929 416.706C536.768 416.706 536.607 416.545 536.607 416.384C536.446 392.572 538.057 339.961 555.939 332.077C556.1 332.077 556.261 332.077 556.422 332.238C556.583 332.399 556.422 332.56 556.261 332.721C538.702 340.444 537.091 392.733 537.252 416.384C537.252 416.545 537.091 416.706 536.929 416.706Z" fill="#6979EF"/>
<path d="M347.804 376H269.673V397.881H347.804V376Z" fill="#F07857"/>
<path d="M498.428 147.536V368.117C498.428 373.426 494.078 377.77 488.762 377.77H128.715C123.399 377.77 119.049 373.426 119.049 368.117V147.536C119.049 142.227 123.399 137.883 128.715 137.883H488.601C494.078 137.883 498.428 142.227 498.428 147.536Z" fill="#37485A"/>
<path d="M498.428 147.536V355.889H119.049V147.536C119.049 142.227 123.399 137.883 128.715 137.883H488.601C494.078 137.883 498.428 142.227 498.428 147.536Z" fill="#F07857"/>
<path d="M489.084 147.536H128.392V345.753H489.084V147.536Z" fill="#EAEAEA"/>
<path d="M372.451 402.708H245.186V402.065C245.186 398.686 247.925 395.79 251.469 395.79H366.33C369.713 395.79 372.612 398.525 372.612 402.065V402.708H372.451Z" fill="#F07857"/>
<path d="M488.601 167.004H128.715V326.285H488.601V167.004Z" fill="white"/>
<path d="M338.299 244.07C335.722 242.783 330.083 242.14 321.223 242.14C319.29 242.14 317.035 242.301 314.457 242.461L310.269 246.645L313.813 239.083L314.94 236.83H302.858L301.57 239.405L291.098 261.929C290.776 262.734 291.259 263.538 292.87 264.343C295.448 265.63 301.086 266.273 309.946 266.273C318.807 266.273 325.089 265.63 328.795 264.343C330.889 263.538 332.178 262.734 332.661 261.929L339.91 246.484C340.232 245.679 339.588 244.875 338.299 244.07ZM327.184 247.932L321.223 260.642C321.062 261.125 320.418 261.447 319.129 261.607C314.135 262.09 309.302 262.09 304.791 261.607C303.825 261.447 303.342 261.125 303.503 260.642L309.785 247.288C312.685 246.806 315.746 246.645 318.968 246.645C323.156 246.806 325.412 246.806 326.056 246.966C327.023 247.127 327.345 247.449 327.184 247.932Z" fill="#3F4959"/>
<path d="M363.108 236.83H351.187L349.093 241.013H361.014L363.108 236.83Z" fill="#3F4959"/>
<path d="M348.449 242.301L337.333 266.112H349.415L360.531 242.301H348.449Z" fill="#3F4959"/>
<path d="M379.056 261.768C375.996 261.768 373.74 261.768 372.129 261.607C371.163 261.446 370.841 261.125 371.002 260.642L377.768 246.001H395.327L395.488 245.679L396.938 242.461H394.199H379.379L381.956 236.991H370.035L358.275 262.251C357.792 263.216 358.436 264.021 359.886 264.664C362.464 265.951 368.102 266.595 376.962 266.595C379.056 266.595 382.6 266.434 387.433 265.951L393.233 260.481C390.494 261.125 388.239 261.446 386.467 261.607C384.373 261.607 381.956 261.768 379.056 261.768Z" fill="#3F4959"/>
<path d="M445.105 261.929H436.084L443.333 246.484C443.816 245.518 443.172 244.714 441.883 243.909C439.306 242.622 433.667 241.979 424.807 241.979C415.947 241.979 409.664 242.622 405.959 243.909C403.865 244.714 402.576 245.518 402.093 246.484L394.843 261.929C394.36 262.734 395.005 263.699 396.454 264.343C399.032 265.63 404.67 266.273 413.531 266.273C414.658 266.273 416.43 266.273 418.524 266.112L424.324 261.768L422.391 265.951H434.473H440.272L445.105 261.929ZM430.446 248.253L424.324 261.446C419.813 261.768 416.913 262.09 415.464 262.09C412.725 262.09 410.309 261.929 408.537 261.607C407.57 261.447 407.248 261.125 407.57 260.32L413.208 248.414C413.531 247.61 414.336 247.288 415.464 247.127C417.075 246.966 419.652 246.805 422.713 246.805C426.257 246.805 428.512 246.805 429.801 246.966C430.445 247.127 430.768 247.61 430.446 248.253Z" fill="#3F4959"/>
<path d="M268.867 242.783C264.035 243.105 260.329 247.288 260.652 252.115C260.974 256.941 265.162 260.642 269.995 260.32C274.828 259.998 278.533 255.815 278.211 250.989C277.889 246.162 273.7 242.461 268.867 242.783Z" fill="#EF7857"/>
<path d="M226.822 246.484L210.712 216.88L171.888 300.06L213.612 250.345L229.399 280.271L268.062 197.251L226.822 246.484Z" fill="#EF7857"/>
<path d="M287.393 239.083C283.527 234.417 277.567 231.521 270.962 232.003C263.068 232.486 256.463 237.635 253.725 244.553C252.597 246.966 252.114 249.701 252.275 252.597L245.992 266.112L252.114 264.021C255.98 268.686 261.94 271.582 268.545 271.1C276.439 270.617 283.044 265.469 285.782 258.55C286.91 256.137 287.393 253.402 287.232 250.506L290.293 243.909L290.776 242.783L293.515 236.991L287.393 239.083ZM268.706 235.543C269.19 235.543 269.673 235.543 270.156 235.543C278.372 235.704 285.299 242.3 285.782 250.506C286.266 259.355 279.661 266.917 270.801 267.56C270.317 267.56 269.834 267.56 269.351 267.56C261.135 267.399 254.208 260.803 253.725 252.597C253.241 243.748 259.846 236.026 268.706 235.543Z" fill="#3F4959"/>
<path d="M313.974 276.731L313.007 279.627H311.719L314.94 270.295H316.39L319.451 279.627H318.162L317.196 276.731H313.974ZM317.035 275.766L316.068 273.031C315.907 272.387 315.746 271.904 315.585 271.261C315.424 271.743 315.263 272.387 315.102 272.87L314.135 275.605H317.035V275.766Z" fill="#3F4959"/>
<path d="M322.029 269.813H323.318L323.156 279.627H322.029V269.813Z" fill="#3F4959"/>
<path d="M326.539 269.813H327.667V279.627H326.539V269.813Z" fill="#3F4959"/>
<path d="M335.238 270.456H340.071V271.422H336.366V274.479H339.91V275.444H336.366V279.627H335.077L335.238 270.456Z" fill="#3F4959"/>
<path d="M348.609 276.248C348.609 278.662 346.837 279.788 345.227 279.788C343.454 279.788 342.005 278.501 342.005 276.409C342.005 274.157 343.454 272.87 345.388 272.87C347.321 272.87 348.609 274.157 348.609 276.248ZM343.293 276.409C343.293 277.857 344.099 278.983 345.227 278.983C346.354 278.983 347.321 277.857 347.321 276.409C347.321 275.283 346.837 273.835 345.388 273.835C343.938 273.674 343.293 275.122 343.293 276.409Z" fill="#3F4959"/>
<path d="M351.348 275.122C351.348 274.318 351.348 273.674 351.348 273.031H352.476V274.318C352.798 273.352 353.442 272.87 354.248 272.87C354.409 272.87 354.409 272.87 354.57 272.87V273.996C354.409 273.996 354.248 273.996 354.087 273.996C353.281 273.996 352.637 274.639 352.476 275.605C352.476 275.766 352.476 275.927 352.476 276.248V279.788H351.348V275.122Z" fill="#3F4959"/>
<path d="M361.819 276.57C361.819 278.179 362.947 278.823 364.075 278.823C364.88 278.823 365.524 278.662 365.847 278.501L366.008 279.305C365.524 279.466 364.88 279.788 363.752 279.788C361.658 279.788 360.531 278.501 360.531 276.409C360.531 274.479 361.658 272.87 363.591 272.87C365.686 272.87 366.33 274.8 366.33 275.927C366.33 276.248 366.33 276.409 366.33 276.57H361.819ZM365.363 275.605C365.363 274.8 365.041 273.674 363.752 273.674C362.464 273.674 361.98 274.8 361.819 275.605H365.363Z" fill="#3F4959"/>
<path d="M375.834 279.305C375.351 279.466 374.546 279.788 373.418 279.788C370.84 279.788 368.907 278.179 368.907 275.122C368.907 272.226 370.84 270.295 373.74 270.295C374.868 270.295 375.673 270.617 375.995 270.778L375.673 271.743C375.19 271.583 374.546 271.422 373.74 271.422C371.646 271.422 370.196 272.87 370.035 275.283C370.035 277.535 371.324 278.983 373.579 278.983C374.384 278.983 375.029 278.823 375.512 278.662L375.834 279.305Z" fill="#3F4959"/>
<path d="M384.372 276.248C384.372 278.662 382.6 279.788 380.989 279.788C379.217 279.788 377.768 278.501 377.768 276.409C377.768 274.157 379.217 272.87 381.151 272.87C383.084 272.87 384.372 274.157 384.372 276.248ZM379.056 276.409C379.056 277.857 379.862 278.983 380.989 278.983C382.117 278.983 383.084 277.857 383.084 276.409C383.084 275.283 382.6 273.835 381.151 273.835C379.701 273.674 379.056 275.122 379.056 276.409Z" fill="#3F4959"/>
<path d="M387.111 274.8C387.111 274.157 387.111 273.513 387.111 273.031H388.239V274.157C388.561 273.513 389.206 272.87 390.333 272.87C391.3 272.87 391.944 273.352 392.266 274.157C392.427 273.835 392.75 273.513 393.072 273.352C393.394 273.03 393.877 272.87 394.522 272.87C395.327 272.87 396.777 273.513 396.616 275.766V279.627H395.488V275.927C395.488 274.639 395.005 273.835 394.038 273.835C393.394 273.835 392.75 274.318 392.589 274.961C392.589 275.122 392.427 275.283 392.427 275.605V279.788H391.3V275.766C391.3 274.639 390.816 273.996 389.85 273.996C389.044 273.996 388.561 274.639 388.4 275.283C388.4 275.444 388.239 275.605 388.239 275.927V279.949H387.111V274.8Z" fill="#3F4959"/>
<path d="M399.838 274.8C399.838 274.157 399.838 273.513 399.838 273.031H400.965V274.157C401.287 273.513 401.932 272.87 403.06 272.87C404.026 272.87 404.67 273.352 404.993 274.157C405.154 273.835 405.476 273.513 405.798 273.352C406.12 273.03 406.604 272.87 407.248 272.87C408.054 272.87 409.503 273.513 409.342 275.766V279.627H408.215V275.927C408.215 274.639 407.731 273.835 406.765 273.835C406.12 273.835 405.476 274.318 405.315 274.961C405.315 275.122 405.154 275.283 405.154 275.605V279.788H404.026V275.766C404.026 274.639 403.543 273.996 402.576 273.996C401.771 273.996 401.288 274.639 401.126 275.283C401.126 275.444 400.965 275.605 400.965 275.927V279.949H399.838V274.8Z" fill="#3F4959"/>
<path d="M413.209 276.57C413.209 278.179 414.336 278.823 415.464 278.823C416.269 278.823 416.914 278.662 417.236 278.501L417.397 279.305C416.914 279.466 416.269 279.788 415.142 279.788C413.048 279.788 411.92 278.501 411.92 276.409C411.92 274.479 413.048 272.87 414.981 272.87C417.075 272.87 417.719 274.8 417.719 275.927C417.719 276.248 417.719 276.409 417.719 276.57H413.209ZM416.753 275.605C416.753 274.8 416.431 273.674 415.142 273.674C413.853 273.674 413.37 274.8 413.209 275.605H416.753Z" fill="#3F4959"/>
<path d="M420.619 275.122C420.619 274.318 420.619 273.674 420.619 273.031H421.747V274.318C422.069 273.352 422.713 272.87 423.519 272.87C423.68 272.87 423.68 272.87 423.841 272.87V273.996C423.68 273.996 423.519 273.996 423.357 273.996C422.552 273.996 421.908 274.639 421.747 275.605C421.747 275.766 421.747 275.927 421.747 276.248V279.788H420.619V275.122Z" fill="#3F4959"/>
<path d="M430.929 279.466C430.607 279.627 429.962 279.788 428.996 279.788C427.063 279.788 425.774 278.501 425.774 276.409C425.774 274.318 427.224 272.87 429.318 272.87C429.962 272.87 430.607 273.031 430.929 273.191L430.607 274.157C430.285 273.996 429.801 273.835 429.157 273.835C427.707 273.835 426.74 274.961 426.74 276.409C426.74 278.018 427.707 278.823 428.996 278.823C429.64 278.823 430.124 278.662 430.446 278.501L430.929 279.466Z" fill="#3F4959"/>
<path d="M434.151 276.57C434.151 278.179 435.279 278.823 436.406 278.823C437.212 278.823 437.856 278.662 438.178 278.501L438.34 279.305C437.856 279.466 437.212 279.788 436.084 279.788C433.99 279.788 432.862 278.501 432.862 276.409C432.862 274.479 433.99 272.87 435.923 272.87C438.017 272.87 438.662 274.8 438.662 275.927C438.662 276.248 438.662 276.409 438.662 276.57H434.151ZM437.695 275.605C437.695 274.8 437.373 273.674 436.084 273.674C434.795 273.674 434.312 274.8 434.151 275.605H437.695Z" fill="#3F4959"/>
<path d="M175.433 126.621H23.6811C21.9091 126.621 20.4592 125.173 20.4592 123.403V58.2422C20.4592 56.4724 21.9091 55.0244 23.6811 55.0244H175.433C177.205 55.0244 178.655 56.4724 178.655 58.2422V123.403C178.655 125.173 177.205 126.621 175.433 126.621Z" fill="#37485A"/>
<path d="M45.1066 101.361H35.4409V117.933H45.1066V101.361Z" fill="#F07857"/>
<path d="M64.9211 83.824H55.2554V117.933H64.9211V83.824Z" fill="#EAEAEA"/>
<path d="M84.5749 93.3164H74.9092V117.933H84.5749V93.3164Z" fill="#F07857"/>
<path d="M104.39 79.3188H94.7239V117.933H104.39V79.3188Z" fill="#EAEAEA"/>
<path d="M124.204 69.3438H114.539V117.933H124.204V69.3438Z" fill="#F07857"/>
<path d="M143.858 75.1357H134.192V117.933H143.858V75.1357Z" fill="#EAEAEA"/>
<path d="M163.673 87.5244H154.007V117.772H163.673V87.5244Z" fill="#F07857"/>
<path d="M79.5809 166.843C79.5809 166.36 79.5809 165.878 79.5809 165.395C79.5809 156.546 72.3316 149.306 63.4714 149.306C56.2221 149.306 50.1005 153.972 48.1674 160.568C47.8452 160.568 47.3619 160.568 47.0397 160.568C44.14 160.568 41.5625 161.534 39.4682 163.304C37.0518 162.016 34.4743 161.212 31.5746 161.212C23.842 161.212 17.3982 166.682 15.7873 173.761C14.8207 173.44 13.693 173.279 12.7265 173.279C6.12156 173.279 0.80542 178.588 0.80542 185.185C0.80542 189.207 2.73856 192.586 5.63827 194.838H10.1489H19.6535H20.2979H41.2403H52.0336H61.2161H68.3042H82.1584H90.2132C93.4351 191.942 95.3682 187.759 95.3682 182.932C95.3682 174.244 88.4411 167.004 79.5809 166.843Z" fill="#EAEAEA"/>
<path d="M51.8727 181.645V190.172H44.4623V181.645H38.9851L48.1675 169.739L57.1888 181.645H51.8727Z" fill="#F07857"/>
<path d="M556.583 136.596L559.322 120.989C559.483 120.024 558.678 119.381 557.711 119.541L526.136 126.138C525.17 126.299 524.848 127.425 525.331 128.069L534.191 141.262C534.513 141.744 534.997 141.905 535.48 141.744L555.456 137.561C556.1 137.4 556.422 137.079 556.583 136.596ZM538.057 149.628C535.802 150.111 534.191 152.363 534.674 154.776C535.158 157.029 537.413 158.638 539.83 158.155C542.085 157.672 543.696 155.42 543.213 153.007C542.729 150.754 540.313 149.145 538.057 149.628ZM554.167 146.249C551.912 146.732 550.301 148.984 550.784 151.398C551.267 153.65 553.523 155.259 555.939 154.776C558.194 154.294 559.805 152.041 559.322 149.628C558.839 147.215 556.583 145.767 554.167 146.249ZM557.872 139.814L534.191 144.801C533.708 144.962 533.225 144.64 532.902 144.319L516.632 122.277C516.31 121.794 515.826 121.633 515.343 121.794L503.583 124.207C502.778 124.368 502.294 125.173 502.455 125.977C502.617 126.782 503.422 127.264 504.227 127.103L514.215 125.012C514.699 124.851 515.182 125.173 515.504 125.494L531.614 147.697C531.936 148.18 532.419 148.341 532.902 148.18L558.356 142.871C559.161 142.71 559.644 141.905 559.483 141.101C559.483 140.296 558.678 139.653 557.872 139.814Z" fill="#EAEAEA"/>
<path d="M558.194 217.523V225.085C558.194 225.89 558.839 226.694 559.805 226.694H562.705C563.027 226.694 563.349 227.016 563.51 227.338C564.155 229.429 564.96 231.36 566.088 233.13L563.672 235.543C563.027 236.187 563.027 237.152 563.672 237.796L568.988 243.105C569.632 243.749 570.599 243.749 571.243 243.105L573.659 240.692C575.593 241.818 577.848 242.783 580.103 243.266V246.645C580.103 247.449 580.748 248.253 581.714 248.253H589.286C590.091 248.253 590.897 247.61 590.897 246.645V242.944C593.152 242.301 595.407 241.496 597.34 240.209L599.757 242.622C600.401 243.266 601.368 243.266 602.012 242.622L607.328 237.313C607.973 236.669 607.973 235.704 607.328 235.06L605.395 233.13C605.073 232.808 605.073 232.486 605.234 232.164C606.201 230.556 606.845 228.786 607.328 226.855C607.489 226.533 607.812 226.212 608.134 226.212H610.873C611.678 226.212 612.483 225.568 612.483 224.603V217.041C612.483 216.236 611.839 215.432 610.873 215.432H607.973C607.651 215.432 607.328 215.11 607.167 214.788C606.684 213.018 605.879 211.249 604.912 209.64C604.751 209.318 604.751 208.835 605.073 208.674L607.006 206.744C607.651 206.1 607.651 205.135 607.006 204.491L601.69 199.182C601.046 198.538 600.079 198.538 599.435 199.182L597.018 201.595C595.246 200.469 593.313 199.665 591.219 199.182C590.897 199.021 590.574 198.699 590.574 198.377V195.642C590.574 194.838 589.93 194.033 588.964 194.033H581.392C580.587 194.033 579.781 194.677 579.781 195.642V198.538C579.781 198.86 579.459 199.182 579.137 199.343C577.365 199.826 575.593 200.63 573.982 201.595C573.659 201.756 573.176 201.756 573.015 201.434L571.082 199.504C570.438 198.86 569.471 198.86 568.827 199.504L563.51 204.813C562.866 205.457 562.866 206.422 563.51 207.066L565.444 208.996C565.766 209.318 565.766 209.64 565.605 209.962C564.638 211.57 563.994 213.34 563.51 215.271C563.349 215.593 563.027 215.915 562.705 215.915H559.966C558.839 215.915 558.194 216.719 558.194 217.523ZM574.304 214.467C575.27 212.697 576.72 211.249 578.331 210.283C590.252 203.848 602.173 215.915 595.891 227.66C594.924 229.429 593.474 230.877 591.702 231.843C579.942 238.117 568.021 226.212 574.304 214.467Z" fill="#F07857"/>
<path d="M585.097 213.179C589.447 213.179 592.991 216.719 592.991 221.063C592.991 225.407 589.447 228.947 585.097 228.947C580.748 228.947 577.203 225.407 577.203 221.063C577.203 216.719 580.748 213.179 585.097 213.179Z" fill="#EAEAEA"/>
<path d="M336.044 88.9722C335.4 88.6504 334.755 88.4895 334.272 88.4895C323.801 87.846 318.485 97.3385 321.707 104.739L311.396 110.853L312.846 113.267L323.156 107.153C326.701 111.658 332.983 112.945 338.138 110.049C345.71 105.544 346.193 93.7989 336.044 88.9722ZM340.716 102.809C336.205 112.945 322.673 109.405 323.479 98.4647C323.479 98.143 323.64 97.8212 323.64 97.4994C328.15 87.3633 341.682 90.9029 340.877 101.843C340.877 102.165 340.877 102.487 340.716 102.809Z" fill="#EAEAEA"/>
<path d="M106.162 267.078H2.41643C1.12767 267.078 0 265.951 0 264.664V234.095C0 232.808 1.12767 231.682 2.41643 231.682H106.162C107.45 231.682 108.578 232.808 108.578 234.095V264.664C108.578 265.951 107.45 267.078 106.162 267.078Z" fill="#37485A"/>
<path d="M20.4591 242.301L22.3922 246.162C22.3922 246.323 22.5533 246.323 22.7144 246.484L26.9029 247.128C27.225 247.128 27.3861 247.61 27.225 247.932L24.1642 250.828C24.0031 250.989 24.0031 251.15 24.0031 251.15L24.6475 255.333C24.6475 255.655 24.3253 255.976 24.0031 255.816L20.298 253.885C20.1369 253.885 19.9758 253.885 19.8147 253.885L16.1095 255.816C15.7873 255.976 15.4651 255.655 15.4651 255.333L16.1095 250.989C16.1095 250.828 16.1095 250.667 15.9484 250.667L12.8876 247.61C12.5654 247.288 12.7265 246.967 13.2098 246.806L17.3983 246.162C17.5593 246.162 17.7204 246.001 17.7204 245.84L19.6536 241.979C19.8147 241.979 20.298 241.979 20.4591 242.301Z" fill="#F07857"/>
<path d="M37.5352 242.301L39.4684 246.162C39.4684 246.323 39.6295 246.323 39.7906 246.484L43.979 247.128C44.3012 247.128 44.4623 247.61 44.3012 247.932L41.2404 250.828C41.0793 250.989 41.0793 251.15 41.0793 251.15L41.7237 255.333C41.7237 255.655 41.4015 255.977 41.0793 255.816L37.3741 253.885C37.213 253.885 37.0519 253.885 36.8909 253.885L33.1857 255.816C32.8635 255.977 32.5413 255.655 32.5413 255.333L33.1857 251.15C33.1857 250.989 33.1857 250.828 33.0246 250.828L29.9638 247.932C29.6416 247.61 29.8027 247.288 30.286 247.128L34.4744 246.484C34.6355 246.484 34.7966 246.323 34.7966 246.162L36.7298 242.301C36.8909 241.979 37.3741 241.979 37.5352 242.301Z" fill="#F07857"/>
<path d="M54.6114 242.301L56.5445 246.162C56.5445 246.323 56.7056 246.323 56.8667 246.484L61.0552 247.128C61.3774 247.128 61.5385 247.61 61.3774 247.932L58.3166 250.828C58.1555 250.989 58.1555 251.15 58.1555 251.15L58.7999 255.333C58.7999 255.655 58.4777 255.977 58.1555 255.816L54.4503 253.885C54.2892 253.885 54.1281 253.885 53.967 253.885L50.2618 255.816C49.9396 255.977 49.6175 255.655 49.6175 255.333L50.2618 251.15C50.2618 250.989 50.2618 250.828 50.1007 250.828L47.0399 247.932C46.7177 247.61 46.8788 247.288 47.3621 247.128L51.5506 246.484C51.7117 246.484 51.8728 246.323 51.8728 246.162L53.8059 242.301C53.967 241.979 54.4503 241.979 54.6114 242.301Z" fill="#F07857"/>
<path d="M71.8482 242.301L73.7814 246.162C73.7814 246.323 73.9425 246.323 74.1036 246.484L78.292 247.128C78.6142 247.128 78.7753 247.61 78.6142 247.932L75.5534 250.828C75.3923 250.989 75.3923 251.15 75.3923 251.15L76.0367 255.333C76.0367 255.655 75.7145 255.977 75.3923 255.816L71.6871 253.885C71.526 253.885 71.3649 253.885 71.2038 253.885L67.4987 255.816C67.1765 255.977 66.8543 255.655 66.8543 255.333L67.4987 251.15C67.4987 250.989 67.4987 250.828 67.3376 250.828L64.2768 247.932C63.9546 247.61 64.1157 247.288 64.5989 247.128L68.7874 246.484C68.9485 246.484 69.1096 246.323 69.1096 246.162L71.0427 242.301C71.2038 241.979 71.6871 241.979 71.8482 242.301Z" fill="#F07857"/>
<path d="M88.9244 242.301L90.8575 246.162C90.8575 246.323 91.0186 246.323 91.1797 246.484L95.3682 247.128C95.6904 247.128 95.8515 247.61 95.6904 247.932L92.6296 250.828C92.4685 250.989 92.4685 251.15 92.4685 251.15L93.1129 255.333C93.1129 255.655 92.7907 255.977 92.4685 255.816L88.7633 253.885C88.6022 253.885 88.4411 253.885 88.28 253.885L84.5748 255.816C84.2526 255.977 83.9304 255.655 83.9304 255.333L84.5748 251.15C84.5748 250.989 84.5748 250.828 84.4137 250.828L81.3529 247.932C81.0307 247.61 81.1918 247.288 81.6751 247.128L85.8636 246.484C86.0247 246.484 86.1858 246.323 86.1858 246.162L88.1189 242.301C88.28 241.979 88.7633 241.979 88.9244 242.301Z" fill="#F07857"/>
<path d="M571.404 402.225H25.1309V428.772H571.404V402.225Z" fill="#EAEAEA"/>
<path d="M571.404 402.225H25.1309V404.156H571.404V402.225Z" fill="#F07857"/>
<path d="M220.217 426.198L223.278 429.094L219.734 434.565L215.062 430.703L220.217 426.198Z" fill="#E3BA96"/>
<path d="M135.32 383.24C138.703 389.676 150.302 392.572 160.128 394.02C168.344 395.146 175.593 395.307 176.238 395.307C177.849 395.629 184.937 407.374 190.414 413.005C195.73 418.636 214.901 431.507 214.901 431.507L220.861 426.198C220.861 426.198 197.18 397.238 189.77 389.998C182.521 382.758 162.706 377.448 162.706 377.448C162.706 377.448 129.037 371.335 135.32 383.24Z" fill="#37485A"/>
<path opacity="0.3" d="M150.624 382.114L160.128 394.02C168.344 395.146 175.594 395.307 176.238 395.307C177.849 395.629 184.937 407.374 190.414 413.005C195.73 418.636 214.901 431.508 214.901 431.508L220.861 426.198C210.712 428.129 209.423 425.394 201.369 418.636C193.475 411.879 187.837 396.916 183.487 393.537C179.299 390.159 168.989 388.389 168.505 386.458C168.022 384.528 173.016 383.08 173.016 383.08L165.606 381.953L150.624 382.114Z" fill="#7F89FA"/>
<path d="M224.083 417.832L228.594 418.475L227.788 425.394L221.828 424.428L224.083 417.832Z" fill="#E3BA96"/>
<path d="M228.432 418.315C228.432 418.315 230.688 418.475 231.171 418.315C231.493 418.154 239.548 413.327 240.515 413.327C240.676 413.327 241.481 413.327 241.481 413.488C241.642 415.418 239.065 426.359 238.259 426.681C237.454 427.003 227.466 425.394 227.466 425.394L228.432 418.315Z" fill="#37485A"/>
<path d="M222.955 428.29C222.955 428.29 224.727 429.898 225.05 429.898C225.372 430.059 234.715 431.025 235.521 431.507C235.521 431.507 236.326 432.151 236.165 432.312C235.199 433.921 226.499 441 225.533 440.839C224.566 440.678 217.8 433.277 217.8 433.277L222.955 428.29Z" fill="#37485A"/>
<path d="M128.07 394.664C132.098 408.339 174.305 407.696 174.305 407.696C174.305 407.696 182.843 413.81 191.864 418.154C201.046 422.337 223.6 425.072 223.6 425.072L225.211 417.027C210.229 413.166 184.132 395.146 180.91 393.538C178.976 392.572 167.378 387.585 158.034 383.562C152.557 381.149 147.885 379.218 146.435 378.575C146.113 378.414 145.952 378.414 145.952 378.414C145.952 378.414 145.63 378.414 144.985 378.575C140.958 379.218 124.365 382.597 128.07 394.664Z" fill="#37485A"/>
<path opacity="0.3" d="M128.07 394.664C132.098 408.339 174.305 407.696 174.305 407.696C174.305 407.696 182.843 413.81 191.864 418.154C201.046 422.337 223.6 425.072 223.6 425.072L225.211 417.027C218.928 424.75 213.29 421.532 201.046 418.315C188.803 415.097 177.204 403.674 174.949 403.03C172.694 402.386 169.472 402.065 157.067 401.582C144.663 401.26 135.159 397.077 135.159 393.538C134.997 390.159 141.441 388.55 144.663 386.941C148.046 385.332 158.678 384.045 158.678 384.045L158.195 383.241L154.973 378.736L146.596 378.414H145.308C140.958 379.218 124.365 382.597 128.07 394.664Z" fill="#7F89FA"/>
<path d="M157.712 333.043C159.323 333.204 160.451 334.33 161.095 335.778C163.511 342.213 171.083 364.095 166.411 366.186C160.934 368.599 155.296 348.81 154.49 342.857C153.685 337.869 154.007 332.721 157.712 333.043Z" fill="#E3BA96"/>
<path d="M160.612 333.365C160.612 333.365 163.673 334.973 164.962 341.248C166.25 347.523 172.533 380.988 172.533 380.988C172.533 380.988 159.968 383.401 159.645 381.149C159.484 379.057 160.612 333.365 160.612 333.365Z" fill="#F07857"/>
<path d="M163.512 349.936L168.022 382.275L159.001 380.023L163.512 349.936Z" fill="#F07857"/>
<path d="M131.131 334.169C129.52 334.008 128.07 334.813 127.265 336.261C123.559 342.053 111.638 361.842 115.827 364.899C120.66 368.278 130.325 350.097 132.42 344.627C134.192 339.8 134.836 334.652 131.131 334.169Z" fill="#E3BA96"/>
<path d="M140.797 349.132C141.764 348.971 142.891 349.775 143.053 350.902C143.214 351.867 143.375 354.119 143.375 355.728C143.375 359.59 143.536 363.29 142.247 363.934C140.958 364.577 139.67 362.164 139.186 358.303C138.864 354.763 137.575 350.419 138.381 349.775C138.864 349.454 139.992 349.293 140.797 349.132Z" fill="#E3BA96"/>
<path d="M165.606 382.758L157.551 381.953L145.63 381.471L144.18 381.632L140.475 380.184L131.776 379.218L129.36 378.896V378.253C129.36 378.253 129.36 377.127 129.198 375.357C129.198 374.07 129.037 372.461 129.037 370.691C128.876 366.347 128.554 360.716 128.554 355.246C128.393 347.04 128.393 339.157 129.037 336.261C130.487 329.503 141.281 330.951 141.281 330.951L154.168 331.916C154.168 331.916 161.095 331.756 162.223 334.812C163.351 338.513 165.606 382.758 165.606 382.758Z" fill="white"/>
<path d="M127.749 389.354L129.682 388.711L146.436 383.723C146.597 378.253 146.919 362.003 147.08 355.246C147.08 354.763 147.08 354.441 147.08 353.958C146.436 338.352 140.958 330.79 140.958 330.79C140.958 330.79 130.326 329.342 128.715 336.1C128.071 338.996 128.071 346.879 128.232 355.085C128.393 360.555 128.554 366.186 128.715 370.53C128.876 372.3 128.876 373.909 128.876 375.196C129.037 376.966 129.037 378.092 129.037 378.092L127.749 389.354Z" fill="#F07857"/>
<path d="M127.749 389.354L129.682 388.711C132.42 377.288 130.648 370.369 130.326 365.06C129.682 356.372 132.42 349.775 132.581 349.454L128.393 354.924C128.393 354.924 128.393 355.085 128.393 355.246C128.554 360.716 128.715 366.347 128.876 370.691C129.037 372.461 129.037 374.07 129.037 375.357C129.198 377.127 129.198 378.253 129.198 378.253L127.749 389.354Z" fill="#F07857"/>
<path d="M144.502 379.218V380.505C144.502 381.149 144.502 381.792 144.502 381.792L140.475 380.183L129.037 375.518C129.037 374.23 128.876 372.622 128.876 370.852C133.87 373.426 144.502 378.896 144.502 379.218Z" fill="#F07857"/>
<path d="M116.15 363.773C116.15 365.06 117.116 366.186 118.244 366.99C123.882 370.369 144.341 382.436 146.597 380.827C149.335 378.896 120.66 360.072 119.049 360.877C117.761 361.359 115.989 361.681 116.15 363.773Z" fill="#E3BA96"/>
<path d="M144.341 377.77C144.341 377.77 146.758 376.966 149.335 377.287C151.107 377.609 153.685 380.183 153.363 381.31C153.202 382.436 152.074 382.114 149.98 380.988C147.885 379.862 148.047 381.953 146.113 381.471C144.019 380.988 143.697 379.862 143.697 379.862" fill="#E3BA96"/>
<path d="M140.797 331.112C145.791 335.617 153.04 332.399 153.685 332.077C151.107 331.273 151.107 327.894 151.107 327.894C155.296 328.859 158.679 320.171 159.323 318.241C159.968 316.31 162.223 309.07 152.879 307.944C143.697 306.818 143.536 317.919 143.375 322.263C143.375 326.607 140.475 330.629 140.797 331.112Z" fill="#E3BA96"/>
<path d="M143.536 323.55C143.536 323.55 140.314 307.461 147.885 305.209C154.812 303.117 156.907 306.496 160.451 311.001C163.995 315.506 168.506 316.149 168.506 316.149C168.506 316.149 161.578 320.976 157.229 317.919C153.524 315.345 149.335 314.219 148.691 316.471C148.046 318.563 148.691 320.815 147.885 320.815C147.08 320.815 146.597 316.954 145.63 317.758C144.341 318.402 146.597 322.746 143.536 323.55Z" fill="#37485A"/>
<path d="M147.724 326.929C147.724 326.929 148.852 331.595 153.685 332.077C151.107 331.273 151.107 327.894 151.107 327.894C151.107 327.894 149.174 327.733 147.724 326.929Z" fill="#D5AA88"/>
<path d="M131.937 332.399C131.937 332.399 127.587 333.204 123.56 340.926C119.533 348.649 112.283 360.394 115.183 365.221C118.083 370.047 136.448 377.287 136.448 377.287L139.508 373.265C139.508 373.265 123.882 362.325 123.882 361.842C123.882 361.52 131.454 350.097 131.454 350.097L131.937 332.399Z" fill="#F07857"/>
<path d="M158.196 355.085C157.873 343.661 154.168 333.204 153.846 331.917V331.756H154.007C154.329 331.756 161.095 331.595 162.223 334.652C163.673 338.191 165.767 380.666 165.767 382.436V382.597L157.551 381.792H157.39V381.632C157.873 375.84 158.357 362.647 158.196 355.246C158.196 355.406 158.196 355.246 158.196 355.085Z" fill="#F07857"/>
<path d="M154.007 331.917L160.129 345.431L159.484 347.362L160.451 349.293L158.196 356.05V355.085C157.873 343.661 154.168 333.204 153.846 331.917H154.007Z" fill="#F07857"/>
<path d="M159.485 384.849C159.646 384.688 180.749 383.08 180.749 383.08L188.482 362.807C188.804 362.807 167.7 363.29 167.7 363.29L159.485 384.688V384.849Z" fill="#EAEAEA"/>
<path d="M159.485 384.849C159.646 384.688 180.749 383.08 180.749 383.08L188.482 362.807C187.837 364.094 178.172 383.884 160.129 384.528C159.968 384.528 159.807 384.528 159.485 384.528V384.849Z" fill="#EAEAEA"/>
<path d="M143.858 384.045L159.484 384.849L159.968 383.562L160.612 382.114L144.019 381.149V382.597L143.858 384.045Z" fill="#EAEAEA"/>
<path d="M167.7 363.29H167.056L158.84 384.849H159.484L167.7 363.29Z" fill="#EAEAEA"/>
<path d="M143.858 384.045L159.323 384.849L159.807 383.562C155.779 383.401 146.758 382.758 143.858 382.597V384.045Z" fill="#EAEAEA"/>
<path d="M182.843 377.609C182.843 377.609 179.621 376.644 179.138 378.896C178.655 381.149 181.071 382.114 181.071 382.114C181.071 382.114 183.165 379.218 182.843 377.609Z" fill="#E3BA96"/>
<path d="M176.077 373.748C175.755 374.552 174.949 375.196 174.144 374.874C173.499 374.552 173.177 373.748 173.499 372.783C173.822 371.978 174.627 371.335 175.433 371.656C176.238 371.978 176.399 372.944 176.077 373.748Z" fill="#EAEAEA"/>
<path d="M455.577 246.323C454.127 246.645 452.999 247.771 452.677 249.219C450.905 255.494 445.427 276.57 449.938 278.179C455.254 279.949 459.121 260.964 459.443 255.333C459.926 250.506 459.121 245.679 455.577 246.323Z" fill="#E3BA96"/>
<path d="M455.416 245.518C455.416 245.518 452.516 247.127 451.227 252.919C449.938 258.872 444.139 290.407 444.139 290.407C444.139 290.407 455.899 292.659 456.221 290.568C456.543 288.476 455.416 245.518 455.416 245.518Z" fill="#F07857"/>
<path d="M452.677 261.125L448.489 291.533L457.027 289.441L452.677 261.125Z" fill="#F07857"/>
<path d="M483.285 245.197C484.735 245.518 485.701 246.645 486.184 248.093C487.795 254.367 492.628 275.766 488.118 277.053C482.64 278.662 479.418 259.516 479.257 253.885C478.935 249.219 479.902 244.392 483.285 245.197Z" fill="#E3BA96"/>
<path d="M474.103 260.32C473.136 260.159 472.169 260.964 472.008 262.09C471.847 262.895 471.686 265.147 471.686 266.595C471.686 270.295 471.525 273.835 472.814 274.318C474.103 274.961 475.23 272.709 475.713 269.008C476.036 265.63 477.163 261.607 476.358 260.964C475.875 260.642 475.069 260.481 474.103 260.32Z" fill="#E3BA96"/>
<path d="M450.744 292.016L457.349 293.625H469.27L471.042 291.05L474.586 289.602L482.802 288.798L485.057 288.637V288.154C485.057 288.154 485.057 287.189 485.218 285.419C485.218 284.293 485.379 282.684 485.379 280.914C485.54 276.892 485.701 271.583 485.862 266.273C486.023 258.55 486.023 251.15 485.379 248.414C483.929 241.979 473.941 243.427 473.941 243.427L461.698 244.231C461.698 244.231 455.093 244.07 453.966 246.966C452.838 250.184 450.744 292.016 450.744 292.016Z" fill="white"/>
<path d="M464.92 296.36C468.464 297.003 470.881 301.025 470.075 304.887C469.431 308.105 467.337 315.506 465.242 320.654C460.087 333.203 455.899 345.109 450.744 345.592C445.589 346.075 444.139 336.743 447.844 323.872C451.227 312.288 452.516 297.003 456.221 295.877C458.154 295.233 461.86 295.716 464.92 296.36Z" fill="#E3BA96"/>
<path d="M474.425 295.072C477.808 294.59 481.352 297.486 481.996 301.347C482.641 304.404 483.285 312.127 483.285 317.597C483.124 330.951 483.768 343.339 479.258 345.431C474.908 347.523 470.236 339.317 468.948 326.124C467.82 314.218 463.631 299.577 466.531 297.325C468.142 296.36 471.525 295.555 474.425 295.072Z" fill="#E3BA96"/>
<path d="M448.327 339.478C457.993 337.547 447.039 382.114 442.689 390.963C438.339 399.812 438.339 393.537 439.789 377.448C441.4 361.198 444.622 340.122 448.327 339.478Z" fill="#E3BA96"/>
<path d="M437.856 384.527L436.889 396.755H441.883L445.427 384.045L437.856 384.527Z" fill="#E3BA96"/>
<path d="M436.728 393.055C436.728 393.055 434.795 395.468 430.285 398.686C425.774 401.743 424.646 401.099 424.646 402.225C424.485 403.512 442.528 403.03 442.528 403.03L443.011 392.894C443.172 392.894 436.89 392.733 436.728 393.055Z" fill="#37485A"/>
<path d="M476.68 340.443C484.412 334.169 493.111 379.379 493.111 389.354C493.111 399.329 488.118 382.436 482.479 367.151C476.841 352.028 473.619 343.018 476.68 340.443Z" fill="#E3BA96"/>
<path d="M487.151 384.206L491.984 395.307L496.494 393.215L493.595 380.183L487.151 384.206Z" fill="#E3BA96"/>
<path d="M490.212 392.089C490.212 392.089 489.084 394.985 486.023 399.49C482.801 403.995 481.513 403.512 481.835 404.799C482.157 405.926 499.072 399.651 499.072 399.651L496.172 389.998C496.172 389.998 490.212 391.928 490.212 392.089Z" fill="#37485A"/>
<path d="M495.528 385.654L491.662 387.263L488.118 388.711C488.118 388.711 473.297 351.706 471.364 346.236C469.592 340.765 466.209 321.298 466.209 321.298L454.288 347.523C451.872 367.151 445.267 387.584 444.944 388.228C444.944 388.228 441.562 387.906 439.306 387.584C438.179 387.423 437.212 387.263 437.212 387.263C437.212 387.263 441.239 350.097 442.528 340.444C443.817 330.79 452.838 294.268 452.838 294.268L480.063 295.073H481.996C486.185 306.657 483.446 342.696 483.446 342.696C489.407 353.476 495.528 385.654 495.528 385.654Z" fill="#37485A"/>
<path d="M491.823 387.102C494.24 379.54 491.018 374.713 489.89 371.334C488.762 367.634 487.957 362.485 486.829 356.211C485.702 349.936 481.352 346.879 480.869 342.696C480.224 338.513 481.674 326.124 481.835 320.976C481.996 315.988 481.674 310.035 481.191 303.921C480.546 297.808 476.68 295.877 476.68 295.877L479.902 294.912H481.835C486.024 306.496 483.285 342.535 483.285 342.535C489.568 353.154 495.689 385.332 495.689 385.332L491.823 387.102Z" fill="#EAEAEA"/>
<path d="M482.318 296.199H452.516C452.355 296.199 452.194 296.038 452.194 295.877V293.625C452.194 293.464 452.355 293.303 452.516 293.303H482.318C482.48 293.303 482.641 293.464 482.641 293.625V295.877C482.641 296.038 482.48 296.199 482.318 296.199Z" fill="#37485A"/>
<path d="M467.337 296.36H467.014C466.853 296.36 466.692 296.199 466.692 296.038V293.142C466.692 292.981 466.853 292.82 467.014 292.82H467.337C467.498 292.82 467.659 292.981 467.659 293.142V296.038C467.659 296.199 467.498 296.36 467.337 296.36Z" fill="url(#paint0_linear_2_461)"/>
<path d="M454.127 296.36H453.643C453.482 296.36 453.482 296.199 453.482 296.199V293.303C453.482 293.142 453.643 293.142 453.643 293.142H454.127C454.288 293.142 454.288 293.303 454.288 293.303V296.199C454.449 296.199 454.288 296.36 454.127 296.36Z" fill="url(#paint1_linear_2_461)"/>
<path d="M479.419 296.36H479.097C478.935 296.36 478.774 296.199 478.774 296.038V293.142C478.774 292.981 478.935 292.82 479.097 292.82H479.419C479.58 292.82 479.741 292.981 479.741 293.142V296.038C479.58 296.199 479.58 296.36 479.419 296.36Z" fill="url(#paint2_linear_2_461)"/>
<path d="M466.531 321.137L454.288 347.523C451.871 367.151 445.266 387.584 444.944 388.228C444.944 388.228 441.561 387.906 439.306 387.584C446.716 384.045 445.911 379.54 447.683 372.622C449.777 364.416 451.71 350.901 452.194 346.557C452.677 342.213 465.081 315.506 465.081 315.506L466.531 321.137Z" fill="#EAEAEA"/>
<path d="M486.024 266.112V266.273C486.024 269.008 485.863 271.743 485.863 274.318C485.863 276.57 485.702 278.823 485.54 280.592C485.54 280.753 485.54 280.753 485.54 280.914C485.54 282.523 485.54 283.649 485.379 284.776C485.379 285.419 485.379 285.902 485.218 286.384C485.218 287.35 485.218 288.315 485.218 289.12C485.379 291.694 485.379 297.647 483.124 299.899C482.48 300.543 477.486 299.256 473.619 298.29C472.17 297.808 470.881 297.486 469.914 297.164C469.109 296.842 468.625 296.199 468.625 295.233C468.625 292.659 468.948 288.315 468.948 285.902C468.948 285.097 468.948 284.132 469.109 283.167C469.27 277.375 469.753 270.456 470.075 265.308C471.364 248.414 474.103 243.266 474.103 243.266C474.103 243.266 484.252 241.818 485.54 248.254C486.185 250.989 486.185 258.39 486.024 266.112Z" fill="#F07857"/>
<path d="M483.768 283.649C483.768 283.649 484.735 284.615 481.996 285.58C479.419 286.545 472.008 289.12 472.169 289.12C472.169 288.959 483.768 283.649 483.768 283.649Z" fill="#F07857"/>
<path d="M485.218 286.384C485.218 287.35 485.218 288.315 485.218 289.119C485.379 291.694 485.379 297.647 483.124 299.899C482.48 300.543 477.486 299.256 473.619 298.29C475.714 298.612 479.097 299.095 481.03 298.612C484.091 297.808 484.091 291.533 483.929 288.637C483.768 285.741 483.768 282.845 483.768 282.845C483.768 282.845 484.574 282.04 485.379 281.075C485.379 282.684 485.379 283.81 485.218 284.936C485.379 285.419 485.379 286.063 485.218 286.384Z" fill="#F07857"/>
<path d="M462.02 244.231C461.698 244.07 455.254 244.07 454.127 246.805C452.999 249.862 451.227 281.075 450.905 289.763C450.905 291.211 450.905 292.981 450.744 294.751C450.744 294.751 450.744 294.751 450.744 294.912C450.744 295.394 450.905 299.256 451.388 299.577C452.194 300.221 456.543 297.647 458.154 296.681C458.476 296.521 458.798 296.038 458.798 295.555L458.637 291.211V291.05C458.315 285.58 458.798 273.513 459.282 266.595C459.604 260.964 461.698 244.714 462.02 244.231Z" fill="#F07857"/>
<path d="M488.44 271.421C488.44 271.421 487.151 272.87 485.702 274.478C483.93 276.409 481.835 278.822 481.674 278.822C481.513 278.983 468.948 286.223 468.948 286.223L468.787 286.062C468.787 285.258 468.787 284.293 468.948 283.327C471.686 281.397 479.58 275.605 481.352 273.835C483.607 271.743 482.802 260.159 482.802 260.159L485.863 266.434L488.44 271.421Z" fill="#F07857"/>
<path d="M474.102 243.266C474.424 242.944 471.686 239.083 471.525 235.061C471.364 230.877 471.364 220.419 462.504 221.546C453.804 222.672 455.899 229.429 456.543 231.199C457.187 232.969 460.409 241.174 464.437 240.37C464.437 240.37 464.276 243.427 462.02 244.231C462.02 244.07 469.108 247.771 474.102 243.266Z" fill="#E3BA96"/>
<path d="M491.179 275.927C491.179 277.214 490.373 278.34 489.245 278.983C483.929 282.201 464.598 293.624 462.343 292.016C459.765 290.246 486.829 272.387 488.44 273.191C489.568 273.513 491.179 273.835 491.179 275.927Z" fill="#E3BA96"/>
<path d="M464.598 289.12C464.598 289.12 462.343 288.315 459.926 288.798C458.154 289.12 455.899 291.533 456.06 292.498C456.221 293.464 457.349 293.303 459.282 292.176C461.376 291.05 461.054 292.981 462.987 292.659C464.92 292.176 465.242 291.211 465.242 291.211" fill="#E3BA96"/>
<path d="M482.48 244.553C482.48 244.553 487.313 246.162 489.246 252.597C491.662 260.481 494.24 274.157 492.79 277.214C490.534 282.04 472.331 288.798 472.331 288.798L469.592 283.971C469.592 283.971 484.252 273.674 484.252 273.352C484.252 273.031 482.963 261.286 482.963 261.286L482.48 244.553Z" fill="#F07857"/>
<path d="M470.075 283.328C470.236 283.328 473.297 288.476 473.297 288.476L472.169 289.12H472.008L468.947 284.293V284.132C469.108 283.971 469.753 283.167 470.075 283.328Z" fill="#EAEAEA"/>
<path d="M470.558 224.763C470.397 224.281 470.075 223.637 469.914 223.155C468.948 221.224 467.659 219.293 465.565 219.132C463.954 218.971 462.343 219.937 460.893 220.58C458.476 221.707 455.577 221.867 452.999 221.224C451.871 220.902 450.744 220.419 449.616 220.741C448.166 221.063 447.039 222.511 446.716 223.959C446.072 226.211 447.039 228.947 448.972 230.395C450.905 231.843 453.643 232.164 455.738 231.038C457.188 230.234 458.799 229.59 460.409 229.268C461.215 229.108 462.182 229.107 462.987 229.59C463.631 230.073 464.115 230.877 464.437 231.521C464.759 232.164 465.081 233.291 465.887 233.612C466.692 233.934 466.531 232.808 466.531 232.325C466.37 231.521 466.37 230.716 466.209 229.912C466.209 229.429 465.887 228.464 466.37 228.142H466.531C467.337 227.981 467.981 228.464 468.464 228.947C469.592 230.234 469.109 232.164 469.431 233.773C469.753 234.9 470.397 236.991 471.847 236.669C472.492 236.508 472.492 235.543 472.492 234.9C472.492 233.934 472.653 232.969 472.492 232.004C472.492 231.038 472.169 230.073 472.008 229.107C471.686 227.659 471.203 226.211 470.558 224.763Z" fill="#37485A"/>
<path d="M429.479 273.191L436.889 292.337C436.889 292.337 456.865 293.946 457.026 294.107L449.133 273.674C448.971 273.674 429.157 273.191 429.479 273.191Z" fill="#37485A"/>
<path d="M471.525 293.142L456.865 293.946L456.382 292.82L455.898 291.372L471.364 290.568V291.855L471.525 293.142Z" fill="#37485A"/>
<path d="M448.972 273.674H449.777L457.51 293.946H456.865L448.972 273.674Z" fill="#EAEAEA"/>
<path d="M471.525 293.142L456.865 293.946L456.382 292.659C460.087 292.498 468.786 291.855 471.525 291.694V293.142Z" fill="#EAEAEA"/>
<path d="M441.078 283.488C441.4 284.293 442.205 284.775 442.85 284.615C443.494 284.293 443.816 283.488 443.494 282.684C443.172 281.879 442.367 281.397 441.722 281.558C441.078 281.879 440.756 282.684 441.078 283.488Z" fill="#EAEAEA"/>
<path d="M238.099 142.066C251.147 144.157 262.263 143.514 262.746 140.618C263.229 137.722 252.919 133.539 239.871 131.447C226.822 129.355 215.706 129.999 215.223 132.895C214.74 135.791 225.05 139.974 238.099 142.066Z" fill="#E3BA96"/>
<path d="M260.33 139.974C269.512 135.63 272.895 176.014 270.962 184.702C268.868 193.39 263.552 178.427 260.813 164.269C258.074 149.949 256.624 141.583 260.33 139.974Z" fill="#E3BA96"/>
<path d="M270.801 185.345C270.801 185.345 272.09 186.954 274.828 189.046C277.567 191.137 278.211 190.655 278.372 191.459C278.372 192.263 266.935 191.459 266.935 191.459L267.096 185.023C267.096 185.023 270.801 185.184 270.801 185.345Z" fill="#F07857"/>
<path d="M249.698 137.722C262.585 141.744 273.701 142.709 274.506 139.974C275.473 137.078 265.807 131.608 252.919 127.425C240.032 123.403 228.916 122.437 228.111 125.172C227.305 128.068 236.971 133.7 249.698 137.722Z" fill="#E3BA96"/>
<path d="M271.445 138.526C282.239 141.583 254.691 175.048 246.637 180.679C238.582 186.472 245.992 172.635 254.208 158.959C262.263 145.284 267.257 137.239 271.445 138.526Z" fill="#E3BA96"/>
<path d="M245.992 181.001C245.992 181.001 245.831 183.254 246.637 186.954C247.281 190.655 248.248 190.816 247.764 191.459C247.281 192.103 238.421 183.254 238.421 183.254L243.254 178.105C243.093 178.266 246.153 180.84 245.992 181.001Z" fill="#F07857"/>
<path d="M269.512 153.328C268.545 154.776 267.579 156.385 266.451 157.994C259.041 168.613 249.536 179.071 249.536 179.071L243.737 173.761C243.737 173.761 259.041 144.962 258.557 143.836C257.913 142.709 224.083 137.078 222.472 125.816C220.861 114.554 239.709 123.081 239.709 123.081C239.709 123.081 274.184 130.643 274.989 139.974C275.311 143.031 273.056 148.019 269.512 153.328Z" fill="#37485A"/>
<path opacity="0.3" d="M269.512 153.328C268.546 154.776 267.579 156.385 266.451 157.994L258.558 143.836L252.436 132.734C253.403 133.056 265.163 133.217 267.74 140.94C268.868 144.157 269.351 148.984 269.512 153.328Z" fill="#37485A"/>
<path d="M272.895 182.771H265.485C265.485 182.771 265.001 181.162 264.357 178.588C261.779 169.256 255.658 147.536 254.852 146.571C253.886 145.445 226.016 145.927 217.8 143.192C209.423 140.457 212.806 125.172 212.806 125.172L223.439 125.655L229.721 125.977C229.721 125.977 260.491 131.447 265.646 139.974C270.801 148.501 272.734 182.771 272.895 182.771Z" fill="#37485A"/>
<path opacity="0.3" d="M264.196 178.427C261.618 169.095 255.497 147.375 254.691 146.41C253.725 145.284 225.855 145.766 217.64 143.031C209.263 140.296 212.646 125.011 212.646 125.011L223.278 125.494C220.861 127.747 217.156 132.895 220.378 137.561C224.406 143.353 253.886 137.561 257.43 145.284C260.169 151.076 262.907 169.256 264.196 178.427Z" fill="#37485A"/>
<path d="M230.366 82.2147C231.816 82.3756 234.071 81.5712 234.555 83.0192C236.649 89.4548 243.898 107.957 239.065 109.566C235.36 110.692 231.655 95.7295 229.883 88.1677C228.594 83.341 226.661 81.8929 230.366 82.2147Z" fill="#E3BA96"/>
<path d="M236.326 105.544C237.293 104.739 238.743 104.578 240.032 105.061C245.831 107.153 266.29 114.714 266.451 117.45C266.612 120.507 236.488 110.853 236.004 109.244C235.521 108.118 234.877 106.67 236.326 105.544Z" fill="#E3BA96"/>
<path d="M262.585 116.163C263.229 114.232 266.612 115.841 267.74 116.323C269.512 117.289 270.962 119.702 270.478 120.507C270.156 121.15 266.129 118.737 265.968 118.898C265.807 119.059 267.579 120.346 267.095 120.989C266.612 121.633 264.035 120.185 263.229 119.059C262.424 118.093 262.101 117.289 262.585 116.163Z" fill="#E3BA96"/>
<path d="M231.172 100.073C231.172 100.073 227.95 83.0191 233.427 82.2146C239.387 81.4102 240.354 99.1081 240.354 99.1081L231.172 100.073Z" fill="#F07857"/>
<path d="M239.871 122.92C239.709 123.081 239.548 123.081 239.548 123.081C238.743 123.564 237.937 123.885 237.132 124.207C228.111 127.425 212.807 125.012 212.807 125.012C212.968 123.242 213.129 120.024 213.29 116.484C213.451 112.784 213.451 108.44 213.612 104.096C213.934 97.0167 214.418 89.7766 215.384 84.9499C215.706 83.1801 216.029 82.0539 219.089 80.7667C222.633 79.3187 230.527 79.6405 234.393 81.893C236.649 83.1801 238.743 88.1677 238.421 92.9944C238.26 97.8211 236.004 98.9473 235.843 106.348C235.682 111.336 237.454 116.967 238.743 120.024C239.065 120.989 239.387 121.633 239.548 122.116C239.71 122.759 239.871 122.92 239.871 122.92Z" fill="#F07857"/>
<path opacity="0.3" d="M239.871 120.989L239.548 122.437L239.387 123.242L239.065 124.69C239.065 124.69 238.26 124.529 236.971 124.207C231.333 123.081 215.706 119.541 213.29 116.806C213.129 116.645 213.129 116.645 212.968 116.484C213.129 112.784 213.129 108.44 213.29 104.096L218.123 98.6255L221.506 100.234L219.895 111.818L238.582 120.346L239.871 120.989Z" fill="url(#paint3_linear_2_461)"/>
<path d="M222.311 73.5266C222.311 73.5266 222.311 80.7667 222.311 81.0885C222.311 81.0885 223.439 83.8236 226.661 83.8236C229.722 83.8236 230.527 81.2494 230.527 80.9276C230.527 80.6058 230.527 76.5836 230.527 76.5836C230.527 76.5836 234.555 78.1925 236.166 76.7445C237.776 75.4573 238.743 74.0093 238.904 68.8608C239.065 63.5515 238.904 60.0119 235.521 58.7248C232.138 57.4376 221.184 54.8634 218.928 60.6554C216.834 66.4475 222.311 73.5266 222.311 73.5266Z" fill="#E3BA96"/>
<path d="M230.527 76.5835L226.339 74.9746L230.527 78.836V76.5835Z" fill="#E3BA96"/>
<path d="M244.542 131.125L247.603 130.965L267.579 130.16L275.956 110.371H275.795L253.242 109.244L247.12 124.69L244.542 131.125ZM262.907 120.828C262.424 121.794 261.457 122.437 260.813 122.116C260.169 121.794 259.847 120.668 260.33 119.702C260.813 118.737 261.78 118.093 262.424 118.415C263.229 118.737 263.391 119.863 262.907 120.828Z" fill="#F07857"/>
<path d="M262.424 118.415C263.068 118.737 263.391 119.863 262.907 120.828C262.424 121.794 261.457 122.437 260.813 122.115C260.169 121.794 259.847 120.667 260.33 119.702C260.813 118.737 261.78 118.093 262.424 118.415Z" fill="#EAEAEA"/>
<path d="M247.119 124.851L244.542 131.126L232.621 124.529L247.119 124.851Z" fill="#F07857"/>
<path d="M244.542 131.126L267.579 130.16L267.418 131.286L244.381 132.091C244.542 132.091 244.703 131.126 244.542 131.126L244.381 132.091L232.299 125.494L232.46 124.529" fill="#EAEAEA"/>
<path d="M219.894 82.6974C221.183 83.341 221.988 84.789 221.988 86.237C221.827 92.9944 220.699 116.163 215.705 116.002C211.839 115.841 213.611 100.556 214.417 92.6726C214.739 88.0068 216.511 81.2494 219.894 82.6974Z" fill="#E3BA96"/>
<path d="M214.256 112.462C215.222 111.658 216.511 111.497 217.8 111.98C223.277 113.91 242.77 120.828 242.931 123.403C243.092 126.299 214.417 117.611 214.095 116.002C213.611 114.876 212.967 113.588 214.256 112.462Z" fill="#E3BA96"/>
<path d="M213.129 109.727C213.129 109.727 212.968 114.715 213.773 116.002C214.579 117.45 222.311 119.22 222.311 119.22C222.311 119.22 215.545 111.497 215.545 111.336C215.545 111.497 213.129 109.727 213.129 109.727Z" fill="#E3BA96"/>
<path d="M239.226 121.955C239.871 120.024 243.093 121.472 244.059 122.116C245.831 123.081 247.12 125.333 246.798 125.977C246.476 126.62 242.609 124.368 242.448 124.529C242.287 124.69 243.898 125.816 243.576 126.46C243.254 127.103 240.676 125.655 239.871 124.69C239.226 123.885 238.904 123.242 239.226 121.955Z" fill="#E3BA96"/>
<path d="M212.807 99.4299C212.807 99.4299 213.29 81.0885 218.767 81.5711C226.016 82.0538 221.667 100.395 221.667 100.395L212.807 99.4299Z" fill="#F07857"/>
<path d="M222.311 74.3311C222.311 74.3311 228.433 73.044 227.305 69.6653C226.822 68.2173 224.889 64.6777 227.627 64.0342C230.205 63.2297 230.366 71.1133 230.366 71.1133C230.366 71.1133 231.655 64.6777 231.977 64.3559C232.138 64.0342 234.232 60.4946 238.904 63.5515C239.548 64.0342 239.226 54.059 229.238 53.8981C221.989 53.7372 217.317 57.1159 217.801 62.9079C217.962 68.5391 218.928 71.2742 222.311 74.3311Z" fill="#F07857"/>
<path d="M218.606 60.0119C218.606 60.0119 210.229 55.9896 207.007 60.8163C203.785 65.643 210.229 79.3187 201.691 80.7667C201.691 80.7667 210.39 85.7543 214.74 79.6405C219.089 73.6875 216.512 67.7346 219.089 67.8955" fill="#F07857"/>
<path d="M217.64 59.6902C217.64 59.6902 217.156 64.8387 218.284 68.2174C218.284 68.2174 218.606 69.0218 217.801 68.8609C216.995 68.8609 215.868 61.2991 216.673 59.3684C216.834 59.0466 217.64 59.6902 217.64 59.6902Z" fill="url(#paint4_linear_2_461)"/>
<path d="M444.3 125.333C466.543 125.333 484.574 107.325 484.574 85.1107C484.574 62.8964 466.543 44.8882 444.3 44.8882C422.058 44.8882 404.026 62.8964 404.026 85.1107C404.026 107.325 422.058 125.333 444.3 125.333Z" fill="#37485A"/>
<path d="M444.3 117.289C462.094 117.289 476.519 102.882 476.519 85.1107C476.519 67.3392 462.094 52.9326 444.3 52.9326C426.506 52.9326 412.081 67.3392 412.081 85.1107C412.081 102.882 426.506 117.289 444.3 117.289Z" fill="#EAEAEA"/>
<path d="M444.3 108.279C457.112 108.279 467.498 97.9062 467.498 85.1108C467.498 72.3154 457.112 61.9426 444.3 61.9426C431.488 61.9426 421.103 72.3154 421.103 85.1108C421.103 97.9062 431.488 108.279 444.3 108.279Z" fill="#37485A"/>
<path d="M447.796 99.9677C456.022 98.0279 461.115 89.7956 459.173 81.5804C457.231 73.3652 448.988 68.278 440.762 70.2178C432.537 72.1577 427.443 80.39 429.385 88.6052C431.328 96.8204 439.57 101.908 447.796 99.9677Z" fill="#EAEAEA"/>
<path d="M437.534 85.1107C437.534 88.8111 440.595 91.868 444.3 91.868C448.005 91.868 451.066 88.8111 451.066 85.1107C451.066 81.4102 448.005 78.3533 444.3 78.3533C440.595 78.3533 437.534 81.4102 437.534 85.1107Z" fill="#F07857"/>
<path d="M402.936 42.0074L401.798 43.146L441.747 83.1114L442.885 81.9728L402.936 42.0074Z" fill="#443DD4"/>
<path d="M445.267 85.4327L444.3 80.2842L440.112 84.3064L445.267 85.4327Z" fill="#443DD4"/>
<path d="M403.221 44.4056L397.744 42.6358L401.127 41.3487L402.576 37.8091L404.349 43.4402L403.221 44.4056Z" fill="#443DD4"/>
<path d="M271.123 47.7844V48.1062C271.123 48.9107 270.479 49.7151 269.512 49.7151C268.707 49.7151 267.901 49.0715 267.901 48.1062V47.7844H271.123Z" fill="#EAEAEA"/>
<path d="M264.196 26.8687C263.23 26.8687 262.424 26.0642 262.424 25.0989C262.424 24.1336 263.23 23.3291 264.196 23.3291C265.163 23.3291 265.968 23.9727 265.968 24.938C265.968 24.938 265.968 24.938 265.968 25.0989L266.129 26.8687H264.196Z" fill="#EAEAEA"/>
<path d="M272.251 27.6731L270.801 40.5443H268.546L267.096 27.6731H272.251Z" fill="#EAEAEA"/>
<path d="M274.989 26.8687H273.056L273.217 25.0989V24.938C273.217 23.9727 274.022 23.3291 274.989 23.3291C275.956 23.3291 276.761 24.1336 276.761 25.0989C276.761 26.0642 275.956 26.8687 274.989 26.8687Z" fill="#EAEAEA"/>
<path d="M269.834 10.9404H269.512C262.585 10.9404 256.947 16.5716 256.947 23.329C256.947 29.9255 262.263 34.5913 264.518 39.7398C264.679 40.2224 265.162 40.3833 265.646 40.3833H267.74L266.29 27.5121H264.196C262.907 27.5121 261.779 26.3859 261.779 24.9379C261.779 23.4899 262.907 22.3636 264.357 22.3636C265.646 22.3636 266.773 23.329 266.773 24.6161L266.934 26.5468H272.251L272.412 24.6161C272.573 23.329 273.539 22.3636 274.828 22.3636C276.278 22.3636 277.406 23.4899 277.406 24.9379C277.406 26.225 276.278 27.3512 274.989 27.5121H272.895L271.445 40.3833H273.539C274.023 40.3833 274.345 40.0616 274.667 39.7398C276.922 34.5913 282.238 29.9255 282.238 23.329C282.238 16.4107 276.6 10.9404 269.834 10.9404ZM280.466 24.2943C280.144 24.2943 279.983 24.1334 279.983 23.9725C279.017 16.0889 271.445 13.3538 271.445 13.3538C271.284 13.3538 271.123 13.032 271.123 12.8711C271.123 12.7102 271.445 12.5493 271.606 12.5493C271.606 12.5493 279.661 15.4454 280.789 23.8116C280.789 23.9725 280.627 24.1334 280.466 24.2943Z" fill="#37485A"/>
<path d="M273.862 43.6011H265.485C265.001 43.6011 264.679 43.2793 264.679 42.7966V42.1531C264.679 41.6704 265.001 41.3486 265.485 41.3486H273.862C274.345 41.3486 274.667 41.6704 274.667 42.1531V42.7966C274.667 43.2793 274.345 43.6011 273.862 43.6011Z" fill="#EAEAEA"/>
<path d="M273.701 44.4058H265.485C265.163 44.4058 264.84 44.7275 264.84 45.0493V46.0147C264.84 46.98 265.646 47.7845 266.612 47.7845H272.412C273.378 47.7845 274.184 46.98 274.184 46.0147V45.0493C274.345 44.5667 274.023 44.4058 273.701 44.4058Z" fill="#EAEAEA"/>
<path d="M279.339 9.00973C279.178 9.00973 279.178 9.00973 279.017 9.00973C278.695 8.84884 278.533 8.36617 278.695 8.04439L282.722 0.643443C282.883 0.321663 283.366 0.160773 283.527 0.321663C283.85 0.482553 284.011 0.965224 283.85 1.12611L279.822 8.52706C279.822 9.00973 279.5 9.00973 279.339 9.00973Z" fill="#EAEAEA"/>
<path d="M285.944 15.7672C285.783 15.7672 285.46 15.6064 285.299 15.4455C285.138 15.1237 285.299 14.8019 285.621 14.641L289.327 12.5494C289.649 12.3886 289.971 12.5494 290.132 12.8712C290.293 13.193 290.132 13.5148 289.81 13.6757L286.105 15.7672H285.944Z" fill="#EAEAEA"/>
<path d="M296.898 24.938H288.36C288.038 24.938 287.716 24.6162 287.716 24.2944C287.716 23.9727 288.038 23.6509 288.36 23.6509H297.059C297.381 23.6509 297.703 23.9727 297.703 24.2944C297.703 24.6162 297.381 24.938 296.898 24.938Z" fill="#EAEAEA"/>
<path d="M289.166 36.0393C289.005 36.0393 289.005 36.0393 288.844 35.8784L285.622 33.9477C285.299 33.7868 285.299 33.3042 285.461 32.9824C285.622 32.6606 286.105 32.6606 286.427 32.8215L289.649 34.7522C289.971 34.9131 289.971 35.3957 289.81 35.7175C289.649 35.8784 289.327 36.0393 289.166 36.0393Z" fill="#EAEAEA"/>
<path d="M269.995 6.59648C269.673 6.59648 269.351 6.2747 269.351 5.95292V1.93067C269.351 1.60889 269.673 1.28711 269.995 1.28711C270.317 1.28711 270.64 1.60889 270.64 1.93067V5.79203C270.64 6.2747 270.479 6.59648 269.995 6.59648Z" fill="#EAEAEA"/>
<path d="M260.974 9.00982C260.813 9.00982 260.49 8.84893 260.49 8.68804L255.819 0.96531C255.658 0.643529 255.658 0.321749 255.98 -3.14713e-05C256.302 -0.160922 256.624 -0.160922 256.946 0.160859L261.618 7.88359C261.779 8.20537 261.779 8.52715 261.457 8.84893C261.296 9.00982 261.135 9.00982 260.974 9.00982Z" fill="#EAEAEA"/>
<path d="M254.208 15.4455C254.047 15.4455 254.047 15.4455 253.886 15.2846L250.02 13.0321C249.697 12.8712 249.536 12.3885 249.858 12.0668C250.02 11.745 250.503 11.5841 250.825 11.9059L254.691 14.1583C255.014 14.3192 255.175 14.8019 254.852 15.1237C254.53 15.4455 254.369 15.4455 254.208 15.4455Z" fill="#EAEAEA"/>
<path d="M251.792 24.7772C251.792 24.7772 251.631 24.6163 251.792 24.7772L243.737 23.4901C243.415 23.4901 243.092 23.1683 243.254 22.6856C243.254 22.3638 243.576 22.0421 244.059 22.203L251.953 23.4901C252.275 23.4901 252.597 23.8119 252.436 24.2945C252.275 24.4554 252.114 24.7772 251.792 24.7772Z" fill="#EAEAEA"/>
<path d="M250.503 35.7177C250.181 35.7177 250.019 35.5568 249.858 35.3959C249.697 35.0741 249.858 34.7523 250.181 34.5915L253.886 32.8217C254.208 32.6608 254.53 32.8217 254.691 33.1434C254.852 33.4652 254.691 33.787 254.369 33.9479L250.664 35.7177C250.825 35.7177 250.664 35.7177 250.503 35.7177Z" fill="#EAEAEA"/>
<path d="M270.801 40.5442H271.606H270.801ZM267.74 40.5442L268.545 40.7051V40.5442H267.74Z" fill="#EAEAEA"/>
<path d="M280.789 23.8116C280.789 23.9725 280.628 24.2943 280.467 24.2943C280.306 24.2943 280.144 24.1334 280.144 23.9725C279.178 16.0889 271.606 13.3538 271.606 13.3538C271.445 13.3538 271.284 13.032 271.284 12.8711C271.284 12.7102 271.606 12.5493 271.767 12.5493C271.767 12.5493 279.822 15.4453 280.789 23.8116Z" fill="#EAEAEA"/>
<path d="M124.688 34.4304L152.718 13.032L173.338 28.9602L199.919 7.23999" stroke="#DBE1ED" stroke-width="0.5" stroke-miterlimit="10"/>
<path d="M127.909 34.4304C127.909 36.2002 126.46 37.6482 124.687 37.6482C122.915 37.6482 121.466 36.2002 121.466 34.4304C121.466 32.6607 122.915 31.2126 124.687 31.2126C126.46 31.2126 127.909 32.8215 127.909 34.4304Z" fill="#37485A"/>
<path d="M155.618 14.1582C155.618 15.928 154.168 17.376 152.396 17.376C150.624 17.376 149.174 15.928 149.174 14.1582C149.174 12.3884 150.624 10.9404 152.396 10.9404C154.168 10.9404 155.618 12.3884 155.618 14.1582Z" fill="#37485A"/>
<path d="M176.56 28.9602C176.56 30.73 175.11 32.178 173.338 32.178C171.566 32.178 170.116 30.73 170.116 28.9602C170.116 27.1904 171.566 25.7424 173.338 25.7424C175.11 25.7424 176.56 27.1904 176.56 28.9602Z" fill="#37485A"/>
<path d="M203.141 7.24002C203.141 9.00981 201.691 10.4578 199.919 10.4578C198.147 10.4578 196.697 9.00981 196.697 7.24002C196.697 5.47023 198.147 4.02222 199.919 4.02222C201.691 4.02222 203.141 5.47023 203.141 7.24002Z" fill="#37485A"/>
</g>
<defs>
<linearGradient id="paint0_linear_2_461" x1="467.143" y1="293.01" x2="467.143" y2="296.078" gradientUnits="userSpaceOnUse">
<stop offset="0.0376884" stop-color="#7F89FA"/>
<stop offset="1" stop-color="#6F7BFA"/>
</linearGradient>
<linearGradient id="paint1_linear_2_461" x1="453.941" y1="293.01" x2="453.941" y2="296.078" gradientUnits="userSpaceOnUse">
<stop stop-color="#5E95FB"/>
<stop offset="1" stop-color="#77ABFB"/>
</linearGradient>
<linearGradient id="paint2_linear_2_461" x1="479.211" y1="293.01" x2="479.211" y2="296.078" gradientUnits="userSpaceOnUse">
<stop stop-color="#5E95FB"/>
<stop offset="1" stop-color="#77ABFB"/>
</linearGradient>
<linearGradient id="paint3_linear_2_461" x1="213.125" y1="111.707" x2="239.932" y2="111.707" gradientUnits="userSpaceOnUse">
<stop stop-color="#EEBF4A"/>
<stop offset="0.9472" stop-color="#E9A647"/>
</linearGradient>
<linearGradient id="paint4_linear_2_461" x1="216.383" y1="64.065" x2="218.333" y2="64.065" gradientUnits="userSpaceOnUse">
<stop offset="0.0376884" stop-color="#F1CC4B"/>
<stop offset="1" stop-color="#EDBB49"/>
</linearGradient>
<clipPath id="clip0_2_461">
<rect width="612" height="441" fill="white"/>
</clipPath>
</defs>
</svg>
