<svg width="13" height="13" viewBox="0 0 13 13" fill="none" xmlns="http://www.w3.org/2000/svg">
<path d="M12.2719 3.50293L12.2297 3.52162C11.2823 3.9433 10.2983 4.24962 9.28922 4.45112C9.57441 5.80393 9.5736 7.20143 9.2876 8.55343C10.2967 8.75412 11.2855 9.05799 12.2288 9.47806L12.2703 9.49674C12.7342 8.59893 12.9999 7.58168 12.9999 6.50024C12.9999 5.41881 12.7342 4.40155 12.2719 3.50293Z" fill="#38485A"/>
<path d="M4.72559 9.22119C5.08471 10.3644 5.67702 11.4474 6.49927 12.4046C7.32152 11.4474 7.91465 10.3644 8.27296 9.22119C7.09565 9.06519 5.9029 9.066 4.72559 9.22119Z" fill="#38485A"/>
<path d="M8.48427 4.57764C7.83102 4.66945 7.17127 4.73201 6.50015 4.73201C5.82821 4.73201 5.16846 4.66864 4.51522 4.57764C4.2414 5.84676 4.2414 7.15976 4.51684 8.42889C5.83228 8.24607 7.16721 8.24607 8.48265 8.42889C8.75808 7.15976 8.7589 5.84676 8.48427 4.57764Z" fill="#38485A"/>
<path d="M6.49927 0.595703C5.67702 1.55283 5.08471 2.63589 4.72559 3.77989C5.9029 3.93508 7.09646 3.93508 8.27296 3.77989C7.91384 2.6367 7.32152 1.55283 6.49927 0.595703Z" fill="#38485A"/>
<path d="M7.05981 0C8.01369 1.092 8.69294 2.33756 9.08781 3.653C10.0352 3.46775 10.9631 3.18581 11.8487 2.795C10.7762 1.23581 9.04556 0.170625 7.05981 0Z" fill="#38485A"/>
<path d="M1.15039 2.795C2.03683 3.185 2.9647 3.46775 3.91127 3.653C4.30614 2.33756 4.98539 1.092 5.93927 0C3.95352 0.170625 2.2237 1.23581 1.15039 2.795Z" fill="#38485A"/>
<path d="M3.71069 4.4516C2.70156 4.24929 1.71844 3.94379 0.771875 3.52211L0.729625 3.50342C0.265688 4.40123 0 5.41848 0 6.49991C0 7.58135 0.265688 8.5986 0.729625 9.49722L0.771875 9.47854C1.71438 9.05766 2.70319 8.75379 3.71231 8.55391C3.4255 7.20191 3.4255 5.80442 3.71069 4.4516Z" fill="#38485A"/>
<path d="M3.91127 9.34766C2.96389 9.53209 2.03602 9.81485 1.15039 10.2048C2.2237 11.764 3.95352 12.8292 5.93927 12.9999C4.98539 11.9079 4.30614 10.6623 3.91127 9.34766Z" fill="#38485A"/>
<path d="M9.08781 9.34717C8.69375 10.6626 8.01369 11.9082 7.05981 13.0002C9.04556 12.8295 10.7762 11.7644 11.8487 10.2052C10.9631 9.81436 10.0352 9.53242 9.08781 9.34717Z" fill="#38485A"/>
</svg>
