<svg width="149" height="56" viewBox="0 0 149 56" fill="none" xmlns="http://www.w3.org/2000/svg">
<path d="M90.7061 25.5296C89.3143 24.8086 86.2096 24.4614 81.3919 24.4614C80.3749 24.4614 79.1437 24.5148 77.6984 24.6216L75.3966 26.945L77.2969 22.8591L77.8857 21.604H71.3283L70.6592 23.0194L64.9048 35.3303C64.6907 35.7843 65.0118 36.2115 65.8416 36.6655C67.2333 37.3598 70.338 37.707 75.1825 37.707C80.0002 37.707 83.4528 37.3598 85.487 36.6655C86.6646 36.2382 87.3605 35.811 87.5746 35.3303L91.5091 26.8916C91.7767 26.3575 91.4823 25.9302 90.7061 25.5296ZM84.6572 27.5859L81.4187 34.5024C81.3116 34.7428 80.9369 34.903 80.2946 35.0365C77.5378 35.3036 74.9416 35.3036 72.4792 35.0632C71.9172 34.9564 71.7031 34.7695 71.8101 34.5291L75.2093 27.2654C76.8419 26.9984 78.5013 26.8916 80.2143 26.9183C82.4625 26.9717 83.7472 27.0251 84.0417 27.0785C84.577 27.1853 84.7643 27.3722 84.6572 27.5859Z" fill="#38485A"/>
<path d="M104.276 21.5239H97.7453L96.6479 23.874H103.179L104.276 21.5239Z" fill="#38485A"/>
<path d="M96.3268 24.5684L90.2512 37.5469H96.7818L102.857 24.5684H96.3268Z" fill="#38485A"/>
<path d="M113.001 35.1167C111.342 35.1434 110.084 35.09 109.174 34.9832C108.639 34.8763 108.451 34.6894 108.558 34.4491L112.279 26.491H121.834V26.4643L121.914 26.2774L122.744 24.5149H121.218H113.135L114.527 21.5239H108.05L101.626 35.3036C101.412 35.7843 101.68 36.2383 102.483 36.6388C103.874 37.3599 106.979 37.707 111.797 37.707C112.948 37.707 114.848 37.5735 117.551 37.3065L120.683 34.3155C119.184 34.636 117.926 34.8229 116.962 34.903C115.919 35.0633 114.58 35.1167 113.001 35.1167Z" fill="#38485A"/>
<path d="M149 35.2505H144.102L148.037 26.8385C148.277 26.3578 147.983 25.9038 147.207 25.4765C145.815 24.7822 142.684 24.4351 137.839 24.4351C132.995 24.4351 129.569 24.7822 127.535 25.4765C126.357 25.9038 125.661 26.3578 125.42 26.8385L121.486 35.2505C121.272 35.7312 121.539 36.1852 122.342 36.5858C123.734 37.2801 126.839 37.6272 131.683 37.6272C132.326 37.6272 133.236 37.6005 134.386 37.5738L137.518 35.1971L136.447 37.4937H143.058H146.217L149 35.2505ZM140.997 27.7999L137.652 34.9568C135.189 35.1704 133.557 35.2505 132.781 35.2505C131.282 35.2772 129.997 35.1971 128.98 35.0102C128.445 34.9568 128.257 34.7164 128.445 34.2891L131.496 27.7732C131.683 27.3459 132.085 27.1055 132.7 27.0521C133.61 26.9453 134.949 26.8919 136.688 26.8919C138.589 26.8919 139.873 26.9453 140.542 27.0254C141.024 27.1322 141.185 27.3726 140.997 27.7999Z" fill="#38485A"/>
<path d="M52.8339 24.7819C50.1841 24.9422 48.1768 27.2121 48.3374 29.8559C48.498 32.4996 50.773 34.5025 53.4227 34.3423C56.0724 34.182 58.0798 31.9121 57.9192 29.2683C57.7586 26.6246 55.4836 24.6217 52.8339 24.7819Z" fill="#EF7857"/>
<path d="M29.9231 26.8116L21.1978 10.6819L0 56L22.7501 28.948L31.2881 45.238L52.4324 0L29.9231 26.8116Z" fill="#EF7857"/>
<path d="M62.9511 22.7793C60.8366 20.2156 57.5713 18.6935 54.0116 18.9071C49.6757 19.1741 46.0892 21.9781 44.6439 25.7702C44.0551 27.1055 43.7606 28.6009 43.8677 30.1765C43.8677 30.1765 43.8677 30.1765 43.8677 30.2032L40.415 37.5471L43.7339 36.372C45.8483 38.9357 49.1136 40.4846 52.6733 40.2442C57.0093 39.9772 60.569 37.1999 62.041 33.4078C62.6299 32.0726 62.9243 30.5771 62.8172 29.0015L64.5034 25.3697L64.7978 24.7554L66.2699 21.5776L62.9511 22.7793ZM52.8072 20.8565C53.0748 20.8298 53.3157 20.8298 53.5834 20.8298C58.0798 20.9367 61.8002 24.5418 62.0946 29.0282C62.389 33.8351 58.7222 37.9743 53.9045 38.2948C53.6369 38.3215 53.396 38.3215 53.1283 38.3215C48.6319 38.2147 44.9115 34.6095 44.6171 30.1231C44.2959 25.3162 47.9895 21.1503 52.8072 20.8565Z" fill="#38485A"/>
<path d="M77.4576 43.2885L76.9223 44.8641H76.2532L77.9929 39.8169H78.7691L80.4552 44.8641H79.7594L79.2241 43.2885H77.4576ZM79.117 42.7811L78.6352 41.3391C78.5282 41.0186 78.4479 40.6982 78.3676 40.4044H78.3408C78.2605 40.6982 78.1802 41.0186 78.0732 41.3124L77.5646 42.7811H79.117Z" fill="#38485A"/>
<path d="M81.8737 39.5767H82.5428L82.516 44.8909H81.8469L81.8737 39.5767Z" fill="#38485A"/>
<path d="M84.3362 39.5767H84.9786L84.9518 44.8909H84.2827L84.3362 39.5767Z" fill="#38485A"/>
<path d="M89.0465 39.8438H91.7498V40.3778H89.6889V42.0602H91.5892V42.5943H89.6889L89.6621 44.891H89.0198L89.0465 39.8438Z" fill="#38485A"/>
<path d="M96.3535 43.048C96.3535 44.3833 95.4167 44.9708 94.5335 44.9708C93.5432 44.9708 92.7938 44.2498 92.8205 43.1015C92.8205 41.8997 93.6235 41.1787 94.6405 41.1787C95.6844 41.1787 96.3803 41.9264 96.3535 43.048ZM93.4896 43.0748C93.4896 43.8759 93.9446 44.4634 94.587 44.4634C95.2026 44.4634 95.6844 43.8759 95.6844 43.048C95.6844 42.4338 95.39 41.6594 94.6138 41.6594C93.8376 41.6861 93.4896 42.4071 93.4896 43.0748Z" fill="#38485A"/>
<path d="M97.8791 42.4073C97.8791 41.98 97.8791 41.6061 97.8523 41.2857H98.4411L98.4679 42.0067H98.4946C98.6552 41.526 99.0567 41.2056 99.5117 41.2056C99.592 41.2056 99.6455 41.2056 99.6991 41.2323V41.8465C99.6188 41.8198 99.5652 41.8198 99.4849 41.8198C99.0299 41.8198 98.682 42.1669 98.6017 42.6743C98.5749 42.7544 98.5749 42.8613 98.5749 42.9948V44.9175H97.9326L97.8791 42.4073Z" fill="#38485A"/>
<path d="M103.607 43.2084C103.607 44.0897 104.196 44.4636 104.838 44.4636C105.32 44.4636 105.588 44.3834 105.828 44.2766L105.935 44.7573C105.695 44.8641 105.293 44.9709 104.731 44.9709C103.607 44.9709 102.965 44.2499 102.965 43.155C102.965 42.0601 103.607 41.2056 104.678 41.2056C105.855 41.2056 106.176 42.2471 106.176 42.9147C106.176 43.0482 106.15 43.155 106.15 43.2084H103.607ZM105.534 42.7277C105.534 42.3005 105.373 41.6595 104.624 41.6595C103.955 41.6595 103.66 42.2738 103.607 42.7277H105.534Z" fill="#38485A"/>
<path d="M111.208 44.7308C110.967 44.8643 110.485 44.9711 109.87 44.9711C108.451 44.9711 107.381 44.0631 107.381 42.4074C107.381 40.8319 108.478 39.7637 110.03 39.7637C110.646 39.7637 111.047 39.8972 111.235 39.9773L111.074 40.5114C110.833 40.4046 110.485 40.2978 110.057 40.2978C108.879 40.2978 108.076 41.0455 108.076 42.3807C108.076 43.6092 108.772 44.4103 110.004 44.4103C110.405 44.4103 110.806 44.3302 111.074 44.1967L111.208 44.7308Z" fill="#38485A"/>
<path d="M115.865 43.048C115.865 44.3833 114.928 44.9708 114.045 44.9708C113.055 44.9708 112.305 44.2498 112.332 43.1015C112.332 41.8997 113.135 41.1787 114.152 41.1787C115.196 41.1787 115.892 41.9264 115.865 43.048ZM113.001 43.0748C113.001 43.8759 113.456 44.4634 114.098 44.4634C114.714 44.4634 115.196 43.8759 115.196 43.048C115.196 42.4338 114.901 41.6594 114.125 41.6594C113.349 41.6861 113.001 42.4071 113.001 43.0748Z" fill="#38485A"/>
<path d="M117.391 42.2472C117.391 41.8734 117.391 41.5529 117.364 41.2592H117.953L117.98 41.8467H118.006C118.22 41.4995 118.542 41.179 119.157 41.179C119.639 41.179 120.014 41.4728 120.174 41.9001H120.201C120.308 41.6864 120.469 41.5529 120.603 41.4194C120.817 41.2592 121.058 41.1523 121.406 41.1523C121.887 41.1523 122.583 41.4728 122.583 42.7279V44.8643H121.941V42.808C121.941 42.1137 121.7 41.6864 121.165 41.6864C120.79 41.6864 120.495 41.9535 120.388 42.2739C120.362 42.3541 120.335 42.4876 120.335 42.5944V44.8376H119.639V42.6745C119.639 42.087 119.398 41.6864 118.89 41.6864C118.488 41.6864 118.167 42.0069 118.06 42.3541C118.033 42.4609 118.006 42.5677 118.006 42.6745V44.8643H117.364L117.391 42.2472Z" fill="#38485A"/>
<path d="M124.296 42.2472C124.296 41.8734 124.296 41.5529 124.269 41.2592H124.858L124.885 41.8467H124.912C125.126 41.4995 125.447 41.179 126.063 41.179C126.544 41.179 126.919 41.4728 127.08 41.9001H127.106C127.213 41.6864 127.374 41.5529 127.508 41.4194C127.722 41.2592 127.963 41.1523 128.311 41.1523C128.793 41.1523 129.488 41.4728 129.488 42.7279V44.8643H128.846V42.808C128.846 42.1137 128.605 41.6864 128.07 41.6864C127.695 41.6864 127.401 41.9535 127.294 42.2739C127.267 42.3541 127.24 42.4876 127.24 42.5944V44.8376H126.598V42.6745C126.598 42.087 126.357 41.6864 125.848 41.6864C125.447 41.6864 125.126 42.0069 125.019 42.3541C124.992 42.4609 124.965 42.5677 124.965 42.6745V44.8643H124.323L124.296 42.2472Z" fill="#38485A"/>
<path d="M131.576 43.2084C131.576 44.0897 132.165 44.4636 132.807 44.4636C133.289 44.4636 133.557 44.3834 133.798 44.2766L133.905 44.7573C133.664 44.8641 133.262 44.9709 132.7 44.9709C131.576 44.9709 130.934 44.2499 130.934 43.155C130.934 42.0601 131.576 41.2056 132.647 41.2056C133.824 41.2056 134.146 42.2471 134.146 42.9147C134.146 43.0482 134.119 43.155 134.119 43.2084H131.576ZM133.503 42.7277C133.503 42.3005 133.343 41.6595 132.593 41.6595C131.924 41.6595 131.63 42.2738 131.576 42.7277H133.503Z" fill="#38485A"/>
<path d="M135.644 42.4073C135.644 41.98 135.644 41.6061 135.618 41.2857H136.206L136.233 42.0067H136.26C136.421 41.526 136.822 41.2056 137.277 41.2056C137.357 41.2056 137.411 41.2056 137.464 41.2323V41.8465C137.384 41.8198 137.331 41.8198 137.25 41.8198C136.795 41.8198 136.447 42.1669 136.367 42.6743C136.34 42.7544 136.34 42.8613 136.34 42.9948V44.9175H135.698L135.644 42.4073Z" fill="#38485A"/>
<path d="M141.238 44.7573C141.077 44.8374 140.676 44.9709 140.194 44.9709C139.097 44.9709 138.401 44.2232 138.401 43.1283C138.401 42.0067 139.177 41.2056 140.355 41.2056C140.756 41.2056 141.077 41.3124 141.265 41.3925L141.104 41.8999C140.944 41.8198 140.703 41.7397 140.355 41.7397C139.525 41.7397 139.07 42.3539 139.07 43.1016C139.07 43.9295 139.605 44.4636 140.328 44.4636C140.703 44.4636 140.944 44.3567 141.131 44.2766L141.238 44.7573Z" fill="#38485A"/>
<path d="M143.032 43.2084C143.032 44.0897 143.62 44.4636 144.263 44.4636C144.744 44.4636 145.012 44.3834 145.253 44.2766L145.36 44.7573C145.119 44.8641 144.718 44.9709 144.156 44.9709C143.032 44.9709 142.389 44.2499 142.389 43.155C142.389 42.0601 143.032 41.2056 144.102 41.2056C145.28 41.2056 145.601 42.2471 145.601 42.9147C145.601 43.0482 145.574 43.155 145.574 43.2084H143.032ZM144.959 42.7277C144.959 42.3005 144.798 41.6595 144.049 41.6595C143.379 41.6595 143.085 42.2738 143.032 42.7277H144.959Z" fill="#38485A"/>
</svg>
