<svg width="14" height="14" viewBox="0 0 14 14" fill="none" xmlns="http://www.w3.org/2000/svg">
<path d="M10.2733 9.03699C10.9617 8.09707 11.3748 6.94163 11.3748 5.68741C11.3748 2.55035 8.82446 0 5.68741 0C2.55035 0 0 2.55035 0 5.68741C0 8.82446 2.55035 11.3748 5.68741 11.3748C6.94163 11.3748 8.09707 10.9617 9.03699 10.2733L12.7637 14L14 12.7637L10.2733 9.03699ZM5.68741 9.62668C3.51721 9.62668 1.75112 7.86059 1.75112 5.6904C1.75112 3.52021 3.51721 1.75112 5.68741 1.75112C7.8576 1.75112 9.62369 3.51721 9.62369 5.68741C9.62369 7.8576 7.8576 9.62668 5.68741 9.62668Z" fill="#38485A"/>
</svg>
