<svg width="11" height="13" viewBox="0 0 11 13" fill="none" xmlns="http://www.w3.org/2000/svg">
<path d="M5.3409 6.26215C6.20121 6.26215 6.94617 5.9536 7.55485 5.34482C8.16354 4.73614 8.47209 3.99138 8.47209 3.13098C8.47209 2.27087 8.16354 1.52601 7.55476 0.917136C6.94597 0.308555 6.20111 0 5.3409 0C4.4805 0 3.73574 0.308555 3.12705 0.917235C2.51837 1.52592 2.20972 2.27077 2.20972 3.13098C2.20972 3.99138 2.51837 4.73624 3.12715 5.34492C3.73594 5.9535 4.4808 6.26215 5.3409 6.26215Z" fill="#38485A"/>
<path d="M10.8197 9.99614C10.8022 9.74283 10.7666 9.46651 10.7144 9.17472C10.6616 8.88074 10.5937 8.60283 10.5123 8.34883C10.4283 8.08629 10.3141 7.82703 10.1728 7.57858C10.0262 7.32071 9.85407 7.09616 9.66086 6.91138C9.45883 6.71808 9.21146 6.56266 8.92542 6.44929C8.64037 6.33652 8.32448 6.2794 7.98656 6.2794C7.85386 6.2794 7.72551 6.33385 7.47766 6.49522C7.32512 6.5947 7.14669 6.70975 6.94753 6.837C6.77723 6.9455 6.54653 7.04716 6.26158 7.1392C5.98357 7.22916 5.7013 7.27479 5.4227 7.27479C5.14409 7.27479 4.86192 7.22916 4.58361 7.1392C4.29896 7.04726 4.06826 6.9456 3.89817 6.8371C3.70089 6.71104 3.52236 6.59599 3.36754 6.49512C3.11998 6.33375 2.99154 6.2793 2.85883 6.2793C2.52082 6.2793 2.20502 6.33652 1.92007 6.44939C1.63423 6.56256 1.38677 6.71798 1.18454 6.91148C0.991427 7.09636 0.819147 7.32081 0.672754 7.57858C0.531618 7.82703 0.41736 8.08619 0.333253 8.34893C0.252022 8.60293 0.184083 8.88074 0.131317 9.17472C0.0790484 9.46611 0.0435411 9.74253 0.0259858 9.99644C0.00872805 10.2452 0 10.5034 0 10.7641C0 11.4427 0.215722 11.9921 0.641115 12.3972C1.06125 12.797 1.61717 12.9999 2.2932 12.9999H8.5528C9.22882 12.9999 9.78454 12.7971 10.2048 12.3972C10.6303 11.9924 10.846 11.4429 10.846 10.764C10.8459 10.5021 10.8371 10.2437 10.8197 9.99614Z" fill="#38485A"/>
</svg>
