<svg width="225" height="84" viewBox="0 0 225 84" fill="none" xmlns="http://www.w3.org/2000/svg">
<path d="M136.944 38.2329C134.843 37.1531 130.156 36.6332 122.882 36.6332C121.347 36.6332 119.488 36.7132 117.306 36.8732L113.831 40.3525L116.7 34.2336L117.589 32.354H107.689L106.678 34.4736L97.9906 52.9101C97.6673 53.59 98.1522 54.2299 99.4049 54.9098C101.506 55.9496 106.194 56.4695 113.507 56.4695C120.781 56.4695 125.994 55.9496 129.065 54.9098C130.843 54.2699 131.893 53.63 132.217 52.9101L138.157 40.2725C138.561 39.4727 138.116 38.8328 136.944 38.2329ZM127.812 41.3123L122.923 51.6704C122.761 52.0303 122.195 52.2703 121.225 52.4702C117.063 52.8702 113.144 52.8702 109.426 52.5102C108.578 52.3503 108.254 52.0703 108.416 51.7104L113.548 40.8324C116.013 40.4325 118.518 40.2725 121.104 40.3125C124.499 40.3925 126.438 40.4725 126.883 40.5525C127.691 40.7124 127.974 40.9924 127.812 41.3123Z" fill="white"/>
<path d="M157.431 32.2341H147.572L145.915 35.7535H155.774L157.431 32.2341Z" fill="white"/>
<path d="M145.43 36.7937L136.257 56.2301H146.116L155.289 36.7937H145.43Z" fill="white"/>
<path d="M170.604 52.5903C168.099 52.6303 166.2 52.5503 164.826 52.3904C164.018 52.2304 163.735 51.9504 163.896 51.5905L169.513 39.6727H183.939V39.6327L184.06 39.3528L185.313 36.7133H183.01H170.806L172.907 32.2341H163.129L153.431 52.8703C153.107 53.5901 153.511 54.27 154.724 54.8699C156.825 55.9497 161.512 56.4696 168.786 56.4696C170.523 56.4696 173.392 56.2696 177.474 55.8697L182.201 51.3905C179.939 51.8704 178.039 52.1504 176.585 52.2704C175.009 52.5103 172.988 52.5903 170.604 52.5903Z" fill="white"/>
<path d="M224.954 52.79H217.559L223.499 40.1923C223.863 39.4725 223.418 38.7926 222.246 38.1527C220.145 37.1129 215.417 36.593 208.103 36.593C200.789 36.593 195.617 37.1129 192.546 38.1527C190.768 38.7926 189.717 39.4725 189.354 40.1923L183.414 52.79C183.091 53.5098 183.495 54.1897 184.707 54.7896C186.808 55.8294 191.495 56.3493 198.809 56.3493C199.779 56.3493 201.153 56.3093 202.891 56.2693L207.618 52.71L206.002 56.1493H215.983H220.751L224.954 52.79ZM212.871 41.6321L207.82 52.3501C204.103 52.67 201.638 52.79 200.466 52.79C198.203 52.83 196.264 52.71 194.728 52.43C193.92 52.3501 193.637 51.9901 193.92 51.3502L198.527 41.5921C198.809 40.9522 199.415 40.5923 200.345 40.5123C201.719 40.3523 203.739 40.2723 206.366 40.2723C209.235 40.2723 211.174 40.3523 212.185 40.4723C212.912 40.6323 213.154 40.9922 212.871 41.6321Z" fill="white"/>
<path d="M79.7661 37.1128C75.7656 37.3528 72.735 40.7521 72.9775 44.7114C73.2199 48.6706 76.6546 51.6701 80.6551 51.4301C84.6555 51.1902 87.6861 47.7908 87.4437 43.8315C87.2012 39.8723 83.7665 36.8729 79.7661 37.1128Z" fill="white"/>
<path d="M45.1766 40.1525L32.0034 15.997L0 83.8643L34.3471 43.3519L47.2374 67.7473L79.16 0L45.1766 40.1525Z" fill="white"/>
<path d="M95.0407 34.1136C91.8485 30.2743 86.9186 27.9948 81.5443 28.3147C74.9982 28.7146 69.5834 32.9138 67.4014 38.5928C66.5124 40.5924 66.0679 42.832 66.2295 45.1915C66.2295 45.1915 66.2295 45.1915 66.2295 45.2315L61.0168 56.2295L66.0275 54.4698C69.2197 58.3091 74.1496 60.6286 79.5239 60.2687C86.0701 59.8688 91.4444 55.7096 93.6668 50.0306C94.5558 48.031 95.0003 45.7914 94.8387 43.4319L97.3844 37.9929L97.8289 37.073L100.051 32.3139L95.0407 34.1136ZM79.7259 31.2341C80.13 31.1941 80.4937 31.1942 80.8978 31.1942C87.6864 31.3541 93.3032 36.7531 93.7477 43.4718C94.1921 50.6705 88.6562 56.8693 81.3827 57.3492C80.9786 57.3892 80.6149 57.3892 80.2108 57.3892C73.4222 57.2293 67.8055 51.8303 67.361 45.1115C66.8761 37.9129 72.4524 31.6741 79.7259 31.2341Z" fill="white"/>
<path d="M116.942 64.8282L116.134 67.1877H115.123L117.75 59.6292H118.922L121.467 67.1877H120.417L119.609 64.8282H116.942ZM119.447 64.0683L118.72 61.9087C118.558 61.4288 118.437 60.9489 118.316 60.509H118.275C118.154 60.9489 118.033 61.4288 117.871 61.8687L117.103 64.0683H119.447Z" fill="white"/>
<path d="M123.609 59.2688H124.619L124.579 67.2273H123.569L123.609 59.2688Z" fill="white"/>
<path d="M127.327 59.2688H128.297L128.256 67.2273H127.246L127.327 59.2688Z" fill="white"/>
<path d="M134.439 59.6689H138.52V60.4688H135.409V62.9883H138.278V63.7882H135.409L135.368 67.2275H134.398L134.439 59.6689Z" fill="white"/>
<path d="M145.47 64.4674C145.47 66.4671 144.056 67.3469 142.723 67.3469C141.228 67.3469 140.096 66.2671 140.137 64.5474C140.137 62.7478 141.349 61.668 142.884 61.668C144.46 61.668 145.511 62.7878 145.47 64.4674ZM141.147 64.5074C141.147 65.7072 141.834 66.587 142.803 66.587C143.733 66.587 144.46 65.7072 144.46 64.4674C144.46 63.5476 144.016 62.3878 142.844 62.3878C141.672 62.4278 141.147 63.5076 141.147 64.5074Z" fill="white"/>
<path d="M147.774 63.5082C147.774 62.8683 147.774 62.3084 147.733 61.8285H148.622L148.663 62.9083H148.703C148.945 62.1884 149.552 61.7085 150.238 61.7085C150.36 61.7085 150.44 61.7085 150.521 61.7485V62.6683C150.4 62.6283 150.319 62.6283 150.198 62.6283C149.511 62.6283 148.986 63.1482 148.865 63.9081C148.824 64.0281 148.824 64.188 148.824 64.388V67.2675H147.854L147.774 63.5082Z" fill="white"/>
<path d="M156.421 64.7079C156.421 66.0277 157.31 66.5876 158.28 66.5876C159.007 66.5876 159.411 66.4676 159.775 66.3076L159.936 67.0275C159.573 67.1875 158.967 67.3474 158.118 67.3474C156.421 67.3474 155.451 66.2676 155.451 64.6279C155.451 62.9883 156.421 61.7085 158.037 61.7085C159.815 61.7085 160.3 63.2682 160.3 64.268C160.3 64.468 160.26 64.6279 160.26 64.7079H156.421ZM159.33 63.9881C159.33 63.3482 159.088 62.3884 157.956 62.3884C156.946 62.3884 156.502 63.3082 156.421 63.9881H159.33Z" fill="white"/>
<path d="M167.897 66.9874C167.533 67.1874 166.806 67.3474 165.876 67.3474C163.735 67.3474 162.118 65.9876 162.118 63.5081C162.118 61.1485 163.775 59.5488 166.119 59.5488C167.048 59.5488 167.654 59.7488 167.937 59.8688L167.695 60.6686C167.331 60.5086 166.806 60.3487 166.159 60.3487C164.381 60.3487 163.169 61.4685 163.169 63.4681C163.169 65.3078 164.22 66.5075 166.078 66.5075C166.685 66.5075 167.291 66.3875 167.695 66.1876L167.897 66.9874Z" fill="white"/>
<path d="M174.928 64.4674C174.928 66.4671 173.513 67.3469 172.18 67.3469C170.685 67.3469 169.553 66.2671 169.594 64.5474C169.594 62.7478 170.806 61.668 172.342 61.668C173.918 61.668 174.968 62.7878 174.928 64.4674ZM170.604 64.5074C170.604 65.7072 171.291 66.587 172.261 66.587C173.19 66.587 173.918 65.7072 173.918 64.4674C173.918 63.5476 173.473 62.3878 172.301 62.3878C171.129 62.4278 170.604 63.5076 170.604 64.5074Z" fill="white"/>
<path d="M177.231 63.2681C177.231 62.7082 177.231 62.2283 177.191 61.7884H178.08L178.12 62.6682H178.16C178.484 62.1483 178.969 61.6684 179.898 61.6684C180.625 61.6684 181.191 62.1083 181.434 62.7482H181.474C181.636 62.4283 181.878 62.2283 182.08 62.0283C182.403 61.7884 182.767 61.6284 183.292 61.6284C184.02 61.6284 185.07 62.1083 185.07 63.988V67.1874H184.101V64.108C184.101 63.0681 183.737 62.4283 182.929 62.4283C182.363 62.4283 181.918 62.8282 181.757 63.3081C181.716 63.4281 181.676 63.628 181.676 63.788V67.1474H180.625V63.908C180.625 63.0282 180.262 62.4283 179.494 62.4283C178.888 62.4283 178.403 62.9082 178.241 63.4281C178.201 63.588 178.16 63.748 178.16 63.908V67.1874H177.191L177.231 63.2681Z" fill="white"/>
<path d="M187.657 63.2681C187.657 62.7082 187.657 62.2283 187.616 61.7884H188.505L188.546 62.6682H188.586C188.909 62.1483 189.394 61.6684 190.324 61.6684C191.051 61.6684 191.617 62.1083 191.859 62.7482H191.9C192.061 62.4283 192.304 62.2283 192.506 62.0283C192.829 61.7884 193.193 61.6284 193.718 61.6284C194.445 61.6284 195.496 62.1083 195.496 63.988V67.1874H194.526V64.108C194.526 63.0681 194.162 62.4283 193.354 62.4283C192.788 62.4283 192.344 62.8282 192.182 63.3081C192.142 63.4281 192.102 63.628 192.102 63.788V67.1474H191.132V63.908C191.132 63.0282 190.768 62.4283 190 62.4283C189.394 62.4283 188.909 62.9082 188.748 63.4281C188.707 63.588 188.667 63.748 188.667 63.908V67.1874H187.697L187.657 63.2681Z" fill="white"/>
<path d="M198.648 64.7079C198.648 66.0277 199.537 66.5876 200.506 66.5876C201.234 66.5876 201.638 66.4676 202.001 66.3076L202.163 67.0275C201.799 67.1875 201.193 67.3474 200.345 67.3474C198.648 67.3474 197.678 66.2676 197.678 64.6279C197.678 62.9883 198.648 61.7085 200.264 61.7085C202.042 61.7085 202.527 63.2682 202.527 64.268C202.527 64.468 202.486 64.6279 202.486 64.7079H198.648ZM201.557 63.9881C201.557 63.3482 201.314 62.3884 200.183 62.3884C199.173 62.3884 198.728 63.3082 198.648 63.9881H201.557Z" fill="white"/>
<path d="M204.79 63.5082C204.79 62.8683 204.79 62.3084 204.75 61.8285H205.638L205.679 62.9083H205.719C205.962 62.1884 206.568 61.7085 207.255 61.7085C207.376 61.7085 207.457 61.7085 207.538 61.7485V62.6683C207.416 62.6283 207.336 62.6283 207.214 62.6283C206.527 62.6283 206.002 63.1482 205.881 63.9081C205.841 64.0281 205.841 64.188 205.841 64.388V67.2675H204.871L204.79 63.5082Z" fill="white"/>
<path d="M213.235 67.0275C212.993 67.1475 212.387 67.3474 211.659 67.3474C210.003 67.3474 208.952 66.2276 208.952 64.588C208.952 62.9083 210.124 61.7085 211.902 61.7085C212.508 61.7085 212.993 61.8685 213.276 61.9884L213.033 62.7483C212.791 62.6283 212.427 62.5083 211.902 62.5083C210.649 62.5083 209.962 63.4282 209.962 64.548C209.962 65.7877 210.77 66.5876 211.861 66.5876C212.427 66.5876 212.791 66.4276 213.074 66.3076L213.235 67.0275Z" fill="white"/>
<path d="M215.942 64.7079C215.942 66.0277 216.831 66.5876 217.801 66.5876C218.529 66.5876 218.933 66.4676 219.296 66.3076L219.458 67.0275C219.094 67.1875 218.488 67.3474 217.64 67.3474C215.942 67.3474 214.973 66.2676 214.973 64.6279C214.973 62.9883 215.942 61.7085 217.559 61.7085C219.337 61.7085 219.822 63.2682 219.822 64.268C219.822 64.468 219.781 64.6279 219.781 64.7079H215.942ZM218.852 63.9881C218.852 63.3482 218.609 62.3884 217.478 62.3884C216.468 62.3884 216.023 63.3082 215.942 63.9881H218.852Z" fill="white"/>
</svg>
