<svg width="20" height="20" viewBox="0 0 20 20" fill="none" xmlns="http://www.w3.org/2000/svg">
<g clip-path="url(#clip0_136_104)">
<path d="M19.5879 14.801C19.3574 15.6578 18.6819 16.3332 17.8252 16.5639C16.2602 16.9922 9.99981 16.9922 9.99981 16.9922C9.99981 16.9922 3.73961 16.9922 2.17452 16.5802C1.33438 16.3496 0.642392 15.6577 0.411833 14.801C0 13.2361 0 9.99058 0 9.99058C0 9.99058 0 6.72872 0.411833 5.18011C0.642545 4.32349 1.3179 3.64799 2.17467 3.41728C3.75609 2.98896 9.99996 2.98896 9.99996 2.98896C9.99996 2.98896 16.2602 2.98896 17.8252 3.40095C18.682 3.63151 19.3574 4.30701 19.5881 5.16364C19.9999 6.72872 19.9999 9.9741 19.9999 9.9741C19.9999 9.9741 20.0164 13.2361 19.5879 14.801Z" fill="white"/>
<path d="M8.00659 6.99207L13.2124 9.99042L8.00659 12.9888V6.99207Z" fill="#38485A"/>
</g>
<defs>
<clipPath id="clip0_136_104">
<rect width="20" height="20" fill="white" transform="matrix(1 0 0 -1 0 20)"/>
</clipPath>
</defs>
</svg>
